<?xml version="1.0" encoding="UTF-8" standalone="no"?>
<svg
   xmlns:dc="http://purl.org/dc/elements/1.1/"
   xmlns:cc="http://creativecommons.org/ns#"
   xmlns:rdf="http://www.w3.org/1999/02/22-rdf-syntax-ns#"
   xmlns:svg="http://www.w3.org/2000/svg"
   xmlns="http://www.w3.org/2000/svg"
   xmlns:sodipodi="http://sodipodi.sourceforge.net/DTD/sodipodi-0.dtd"
   xmlns:inkscape="http://www.inkscape.org/namespaces/inkscape"
   version="1.1"
   id="svg2"
   viewBox="0 0 621.68306 204.03616"
   height="57.583538mm"
   width="175.45277mm"
   inkscape:version="0.91 r13725"
   sodipodi:docname="Chronobank-minting-distribution.svg">
  <sodipodi:namedview
     pagecolor="#ffffff"
     bordercolor="#666666"
     borderopacity="1"
     objecttolerance="10"
     gridtolerance="10"
     guidetolerance="10"
     inkscape:pageopacity="0"
     inkscape:pageshadow="2"
     inkscape:window-width="1920"
     inkscape:window-height="1200"
     id="namedview102"
     showgrid="false"
     inkscape:zoom="2.0524928"
     inkscape:cx="318.45024"
     inkscape:cy="116.80611"
     inkscape:window-x="1920"
     inkscape:window-y="0"
     inkscape:window-maximized="0"
     inkscape:current-layer="layer1" />
  <defs
     id="defs4" />
  <metadata
     id="metadata7">
    <rdf:RDF>
      <cc:Work
         rdf:about="">
        <dc:format>image/svg+xml</dc:format>
        <dc:type
           rdf:resource="http://purl.org/dc/dcmitype/StillImage" />
        <dc:title />
      </cc:Work>
    </rdf:RDF>
  </metadata>
  <g
     transform="translate(-29.515611,-473.07329)"
     id="layer1">
    <g
       transform="matrix(1.25,0,0,-1.25,2.2321466,693.03313)"
       id="g4454">
      <path
         id="path4456"
         style="fill:none;stroke:#000000;stroke-width:1;stroke-linecap:butt;stroke-linejoin:miter;stroke-miterlimit:10;stroke-dasharray:none;stroke-opacity:1"
         d="m 504.5,62.5 -468,0 0,67 468,0 0,-67 z" />
      <g
         transform="translate(64.5,130)"
         id="g4458">
        <path
           id="path4460"
           style="fill:none;stroke:#000000;stroke-width:1;stroke-linecap:butt;stroke-linejoin:miter;stroke-miterlimit:10;stroke-dasharray:none;stroke-opacity:1"
           d="M 0,0 0,-67" />
      </g>
      <g
         transform="translate(192.5,130)"
         id="g4462">
        <path
           id="path4464"
           style="fill:none;stroke:#000000;stroke-width:1;stroke-linecap:butt;stroke-linejoin:miter;stroke-miterlimit:10;stroke-dasharray:none;stroke-opacity:1"
           d="M 0,0 0,-67" />
      </g>
      <g
         transform="translate(158.5,130)"
         id="g4466">
        <path
           id="path4468"
           style="fill:none;stroke:#000000;stroke-width:1;stroke-linecap:butt;stroke-linejoin:miter;stroke-miterlimit:10;stroke-dasharray:none;stroke-opacity:1"
           d="M 0,0 0,-67" />
      </g>
      <g
         transform="translate(103.5,130)"
         id="g4470">
        <path
           id="path4472"
           style="fill:none;stroke:#000000;stroke-width:1;stroke-linecap:butt;stroke-linejoin:miter;stroke-miterlimit:10;stroke-dasharray:none;stroke-opacity:1"
           d="m 1.5004688e-6,0 0,-87"
           inkscape:connector-curvature="0" />
      </g>
      <g
         transform="translate(219.3438,149)"
         id="g4474">
        <path
           id="path4476"
           style="fill:none;stroke:#000000;stroke-width:1;stroke-linecap:butt;stroke-linejoin:miter;stroke-miterlimit:10;stroke-dasharray:none;stroke-opacity:1"
           d="M 0,0 0.156,-86" />
      </g>
      <g
         transform="translate(228,77.6992)"
         id="g4478">
        <path
           id="path4480"
           style="fill:#000000;fill-opacity:1;fill-rule:nonzero;stroke:none"
           d="M 0,0 -8.055,4.65 0,9.301 0,0 Z" />
      </g>
      <g
         transform="translate(496,87.333)"
         id="g4482">
        <path
           id="path4484"
           style="fill:#000000;fill-opacity:1;fill-rule:nonzero;stroke:none"
           d="M 0,0 8.344,-4.817 0,-9.634 0,0 Z" />
      </g>
      <g
         transform="translate(228,82.5)"
         id="g4486">
        <path
           id="path4488"
           style="fill:none;stroke:#000000;stroke-width:1;stroke-linecap:butt;stroke-linejoin:miter;stroke-miterlimit:10;stroke-dasharray:none;stroke-opacity:1"
           d="M 0,0 268,0" />
      </g>
      <g
         transform="translate(45,136.6992)"
         id="g4490">
        <path
           id="path4492"
           style="fill:#000000;fill-opacity:1;fill-rule:nonzero;stroke:none"
           d="M 0,0 -8.055,4.65 0,9.301 0,0 Z" />
      </g>
      <g
         transform="translate(211,146.333)"
         id="g4494">
        <path
           id="path4496"
           style="fill:#000000;fill-opacity:1;fill-rule:nonzero;stroke:none"
           d="M 0,0 8.344,-4.817 0,-9.634 0,0 Z" />
      </g>
      <g
         transform="translate(45,141.5)"
         id="g4498">
        <path
           id="path4500"
           style="fill:none;stroke:#000000;stroke-width:1;stroke-linecap:butt;stroke-linejoin:miter;stroke-miterlimit:10;stroke-dasharray:none;stroke-opacity:1"
           d="M 0,0 166,0" />
      </g>
      <g
         transform="translate(201,77.6992)"
         id="g4502">
        <path
           id="path4504"
           style="fill:#000000;fill-opacity:1;fill-rule:nonzero;stroke:none"
           d="M 0,0 -8.055,4.65 0,9.301 0,0 Z" />
      </g>
      <g
         transform="translate(211,87.333)"
         id="g4506">
        <path
           id="path4508"
           style="fill:#000000;fill-opacity:1;fill-rule:nonzero;stroke:none"
           d="M 0,0 8.344,-4.817 0,-9.634 0,0 Z" />
      </g>
      <g
         transform="translate(201,82.5)"
         id="g4510">
        <path
           id="path4512"
           style="fill:none;stroke:#000000;stroke-width:1;stroke-linecap:butt;stroke-linejoin:miter;stroke-miterlimit:10;stroke-dasharray:none;stroke-opacity:1"
           d="M 0,0 10,0" />
      </g>
      <g
         transform="translate(167,77.6992)"
         id="g4514">
        <path
           id="path4516"
           style="fill:#000000;fill-opacity:1;fill-rule:nonzero;stroke:none"
           d="M 0,0 -8.055,4.65 0,9.301 0,0 Z" />
      </g>
      <g
         transform="translate(184,87.333)"
         id="g4518">
        <path
           id="path4520"
           style="fill:#000000;fill-opacity:1;fill-rule:nonzero;stroke:none"
           d="M 0,0 8.344,-4.817 0,-9.634 0,0 Z" />
      </g>
      <g
         transform="translate(167,82.5)"
         id="g4522">
        <path
           id="path4524"
           style="fill:none;stroke:#000000;stroke-width:1;stroke-linecap:butt;stroke-linejoin:miter;stroke-miterlimit:10;stroke-dasharray:none;stroke-opacity:1"
           d="M 0,0 17,0" />
      </g>
      <g
         transform="translate(112,77.6992)"
         id="g4526">
        <path
           id="path4528"
           style="fill:#000000;fill-opacity:1;fill-rule:nonzero;stroke:none"
           d="M 0,0 -8.055,4.65 0,9.301 0,0 Z" />
      </g>
      <g
         transform="translate(150,87.333)"
         id="g4530">
        <path
           id="path4532"
           style="fill:#000000;fill-opacity:1;fill-rule:nonzero;stroke:none"
           d="M 0,0 8.344,-4.817 0,-9.634 0,0 Z" />
      </g>
      <g
         transform="translate(112,82.5)"
         id="g4534">
        <path
           id="path4536"
           style="fill:none;stroke:#000000;stroke-width:1;stroke-linecap:butt;stroke-linejoin:miter;stroke-miterlimit:10;stroke-dasharray:none;stroke-opacity:1"
           d="M 0,0 38,0" />
      </g>
      <g
         transform="translate(73,77.6992)"
         id="g4538">
        <path
           id="path4540"
           style="fill:#000000;fill-opacity:1;fill-rule:nonzero;stroke:none"
           d="M 0,0 -8.055,4.65 0,9.301 0,0 Z" />
      </g>
      <g
         transform="translate(95,87.333)"
         id="g4542">
        <path
           id="path4544"
           style="fill:#000000;fill-opacity:1;fill-rule:nonzero;stroke:none"
           d="M 0,0 8.344,-4.817 0,-9.634 0,0 Z" />
      </g>
      <g
         transform="translate(73,82.5)"
         id="g4546">
        <path
           id="path4548"
           style="fill:none;stroke:#000000;stroke-width:1;stroke-linecap:butt;stroke-linejoin:miter;stroke-miterlimit:10;stroke-dasharray:none;stroke-opacity:1"
           d="M 0,0 22,0" />
      </g>
      <g
         transform="translate(45,77.6992)"
         id="g4550">
        <path
           id="path4552"
           style="fill:#000000;fill-opacity:1;fill-rule:nonzero;stroke:none"
           d="M 0,0 -8.055,4.65 0,9.301 0,0 Z" />
      </g>
      <g
         transform="translate(56,87.333)"
         id="g4554">
        <path
           id="path4556"
           style="fill:#000000;fill-opacity:1;fill-rule:nonzero;stroke:none"
           d="M 0,0 8.344,-4.817 0,-9.634 0,0 Z" />
      </g>
      <g
         transform="translate(45,82.5)"
         id="g4558">
        <path
           id="path4560"
           style="fill:none;stroke:#000000;stroke-width:1;stroke-linecap:butt;stroke-linejoin:miter;stroke-miterlimit:10;stroke-dasharray:none;stroke-opacity:1"
           d="M 0,0 11,0" />
      </g>
      <g
         transform="translate(36.5,43)"
         id="g4562">
        <path
           id="path4564"
           style="fill:none;stroke:#000000;stroke-width:1;stroke-linecap:butt;stroke-linejoin:miter;stroke-miterlimit:10;stroke-dasharray:none;stroke-opacity:1"
           d="M 0,0 0,19" />
      </g>
      <g
         transform="translate(36.5,130)"
         id="g4566">
        <path
           id="path4568"
           style="fill:none;stroke:#000000;stroke-width:1;stroke-linecap:butt;stroke-linejoin:miter;stroke-miterlimit:10;stroke-dasharray:none;stroke-opacity:1"
           d="M 0,0 0,19" />
      </g>
      <g
         transform="translate(45,47.6992)"
         id="g4570">
        <path
           id="path4572"
           style="fill:#000000;fill-opacity:1;fill-rule:nonzero;stroke:none"
           d="M 0,0 -8.055,4.65 0,9.301 0,0 Z" />
      </g>
      <g
         transform="translate(95,57.333)"
         id="g4574">
        <path
           id="path4576"
           style="fill:#000000;fill-opacity:1;fill-rule:nonzero;stroke:none"
           d="M 0,0 8.344,-4.817 0,-9.634 0,0 Z" />
      </g>
      <g
         transform="translate(45,52.5)"
         id="g4578">
        <path
           id="path4580"
           style="fill:none;stroke:#000000;stroke-width:1;stroke-linecap:butt;stroke-linejoin:miter;stroke-miterlimit:10;stroke-dasharray:none;stroke-opacity:1"
           d="M 0,0 50,0" />
      </g>
    </g>
    <g
       transform="matrix(0.55112004,0,0,0.51871447,44.593671,384.63772)"
       id="g4811">
      <g
         style="font-style:normal;font-variant:normal;font-weight:normal;font-stretch:normal;letter-spacing:normal;word-spacing:normal;text-anchor:start;fill:none;fill-opacity:1;fill-rule:evenodd;stroke:#000000;stroke-linecap:butt;stroke-linejoin:miter;stroke-miterlimit:10.43299961;stroke-dasharray:none;stroke-dashoffset:0;stroke-opacity:1"
         id="content"
         transform="matrix(1.0629921,0,0,-1.0629921,-186.02362,789.27165)"
         xml:space="preserve"
         stroke-miterlimit="10.433"
         font-style="normal"
         font-variant="normal"
         font-weight="normal"
         font-stretch="normal"
         font-size-adjust="none"
         letter-spacing="normal"
         word-spacing="normal"><path
           style="fill:#000000;stroke-width:0"
           d="m 473.8,426.12 4.28,0 c 1,0 1.5,0 1.5,1 0,0.55 -0.5,0.55 -1.34,0.55 l -4.14,0 1.04,5.69 c 0.21,1.04 0.91,4.57 1.21,5.17 0.45,0.95 1.29,1.7 2.34,1.7 0.19,0 1.49,0 2.44,-0.91 -2.19,-0.18 -2.69,-1.93 -2.69,-2.68 0,-1.14 0.89,-1.74 1.85,-1.74 1.29,0 2.73,1.1 2.73,2.99 0,2.29 -2.3,3.43 -4.33,3.43 -1.7,0 -4.84,-0.89 -6.33,-5.82 -0.29,-1.05 -0.45,-1.55 -1.64,-7.83 l -3.43,0 c -0.96,0 -1.5,0 -1.5,-0.94 0,-0.61 0.45,-0.61 1.39,-0.61 l 3.29,0 -3.75,-19.67 c -0.89,-4.83 -1.73,-9.38 -4.33,-9.38 -0.2,0 -1.43,0 -2.39,0.91 2.3,0.14 2.74,1.94 2.74,2.69 0,1.14 -0.89,1.75 -1.85,1.75 -1.29,0 -2.73,-1.1 -2.73,-3 0,-2.24 2.19,-3.44 4.23,-3.44 2.74,0 4.74,2.94 5.63,4.84 1.59,3.14 2.75,9.16 2.8,9.52 z"
           id="path4814"
           inkscape:connector-curvature="0" /><path
           style="fill:#000000;stroke-width:0"
           d="m 491.18,420.54 -0.01,0.05 0,0.06 -0.01,0.05 0,0.06 -0.02,0.05 -0.01,0.06 -0.02,0.05 -0.02,0.06 -0.02,0.06 -0.02,0.05 -0.03,0.06 -0.03,0.05 -0.03,0.06 -0.04,0.05 -0.04,0.05 -0.04,0.05 -0.04,0.05 -0.05,0.05 -0.05,0.04 -0.05,0.05 -0.06,0.04 -0.06,0.03 -0.06,0.04 -0.07,0.03 -0.06,0.03 -0.07,0.03 -0.08,0.02 -0.08,0.02 -0.08,0.01 -0.08,0.01 -0.09,0.01 -0.09,0 c -0.94,0 -1.95,-0.91 -1.95,-1.92 0,-0.59 0.45,-1.33 1.4,-1.33 1,0 1.96,0.99 1.96,1.92 z"
           id="path4816"
           inkscape:connector-curvature="0" /><path
           style="fill:#000000;stroke-width:0"
           d="m 484.07,402.84 -0.06,-0.17 -0.05,-0.17 -0.03,-0.08 -0.02,-0.09 -0.03,-0.08 -0.02,-0.09 -0.02,-0.09 -0.02,-0.09 -0.02,-0.1 -0.02,-0.09 -0.01,-0.1 0,-0.05 -0.01,-0.05 0,-0.06 0,-0.05 -0.01,-0.05 0,-0.06 c 0,-1.64 1.39,-2.95 3.3,-2.95 3.49,0 5.03,4.79 5.03,5.33 0,0.45 -0.45,0.45 -0.56,0.45 -0.48,0 -0.53,-0.2 -0.67,-0.59 -0.8,-2.79 -2.33,-4.22 -3.69,-4.22 -0.7,0 -0.87,0.45 -0.87,1.22 0,0.79 0.25,1.46 0.56,2.23 0.34,0.94 0.73,1.87 1.11,2.78 0.31,0.84 1.58,4.02 1.72,4.44 0.09,0.34 0.2,0.76 0.2,1.11 0,1.64 -1.39,2.95 -3.31,2.95 -3.46,0 -5.05,-4.73 -5.05,-5.33 0,-0.45 0.48,-0.45 0.59,-0.45 0.49,0 0.52,0.17 0.63,0.56 0.9,3 2.44,4.25 3.72,4.25 0.56,0 0.87,-0.28 0.87,-1.22 0,-0.79 -0.2,-1.32 -1.08,-3.48 z"
           id="path4818"
           inkscape:connector-curvature="0" /></g>    </g>
    <g
       id="g5038"
       transform="matrix(0.51407055,0,0,0.51871447,93.024334,384.63771)">
      <g
         word-spacing="normal"
         letter-spacing="normal"
         font-size-adjust="none"
         font-stretch="normal"
         font-weight="normal"
         font-variant="normal"
         font-style="normal"
         stroke-miterlimit="10.433"
         xml:space="preserve"
         transform="matrix(1.0629921,0,0,-1.0629921,-186.02362,789.27165)"
         id="g5040"
         style="font-style:normal;font-variant:normal;font-weight:normal;font-stretch:normal;letter-spacing:normal;word-spacing:normal;text-anchor:start;fill:none;fill-opacity:1;fill-rule:evenodd;stroke:#000000;stroke-linecap:butt;stroke-linejoin:miter;stroke-miterlimit:10.43299961;stroke-dasharray:none;stroke-dashoffset:0;stroke-opacity:1"><path
           id="path5042"
           d="m 473.8,426.12 4.28,0 c 1,0 1.5,0 1.5,1 0,0.55 -0.5,0.55 -1.34,0.55 l -4.14,0 1.04,5.69 c 0.21,1.04 0.91,4.57 1.21,5.17 0.45,0.95 1.29,1.7 2.34,1.7 0.19,0 1.49,0 2.44,-0.91 -2.19,-0.18 -2.69,-1.93 -2.69,-2.68 0,-1.14 0.89,-1.74 1.85,-1.74 1.29,0 2.73,1.1 2.73,2.99 0,2.29 -2.3,3.43 -4.33,3.43 -1.7,0 -4.84,-0.89 -6.33,-5.82 -0.29,-1.05 -0.45,-1.55 -1.64,-7.83 l -3.43,0 c -0.96,0 -1.5,0 -1.5,-0.94 0,-0.61 0.45,-0.61 1.39,-0.61 l 3.29,0 -3.75,-19.67 c -0.89,-4.83 -1.73,-9.38 -4.33,-9.38 -0.2,0 -1.43,0 -2.39,0.91 2.3,0.14 2.74,1.94 2.74,2.69 0,1.14 -0.89,1.75 -1.85,1.75 -1.29,0 -2.73,-1.1 -2.73,-3 0,-2.24 2.19,-3.44 4.23,-3.44 2.74,0 4.74,2.94 5.63,4.84 1.59,3.14 2.75,9.16 2.8,9.52 z"
           style="fill:#000000;stroke-width:0"
           inkscape:connector-curvature="0" /><path
           id="path5044"
           d="m 495.14,412.11 -0.11,-0.03 -0.11,-0.02 -0.11,-0.03 -0.11,-0.04 -0.09,-0.03 -0.1,-0.04 -0.09,-0.05 -0.09,-0.05 -0.08,-0.05 -0.08,-0.05 -0.07,-0.06 -0.08,-0.06 -0.06,-0.06 -0.07,-0.07 -0.06,-0.06 -0.05,-0.07 -0.05,-0.07 -0.05,-0.07 -0.05,-0.07 -0.04,-0.08 -0.03,-0.07 -0.04,-0.08 -0.03,-0.07 -0.03,-0.08 -0.02,-0.07 -0.02,-0.08 -0.02,-0.08 -0.01,-0.07 -0.01,-0.08 -0.01,-0.07 -0.01,-0.08 0,-0.07 c 0,-0.94 0.74,-1.28 1.36,-1.28 0.77,0 1.99,0.55 1.99,2.22 0,2.37 -2.72,3.03 -4.6,3.03 -5.23,0 -10.07,-4.8 -10.07,-9.64 0,-3 2.09,-6.06 6.45,-6.06 5.89,0 8.64,3.44 8.64,3.94 0,0.2 -0.31,0.59 -0.59,0.59 -0.21,0 -0.29,-0.08 -0.57,-0.36 -2.72,-3.2 -6.79,-3.2 -7.42,-3.2 -2.5,0 -3.62,1.7 -3.62,3.87 0,1 0.5,4.8 2.31,7.2 1.31,1.72 3.12,2.69 4.87,2.69 0.49,0 2.16,-0.06 3.03,-1.04 z"
           style="fill:#000000;stroke-width:0"
           inkscape:connector-curvature="0" /></g>    </g>
    <g
       transform="matrix(0.5991978,0,0,0.5991978,236.59933,354.64152)"
       id="g5232">
      <g
         style="font-style:normal;font-variant:normal;font-weight:normal;font-stretch:normal;letter-spacing:normal;word-spacing:normal;text-anchor:start;fill:none;fill-opacity:1;fill-rule:evenodd;stroke:#000000;stroke-linecap:butt;stroke-linejoin:miter;stroke-miterlimit:10.43299961;stroke-dasharray:none;stroke-dashoffset:0;stroke-opacity:1"
         id="g5234"
         transform="matrix(1.0629921,0,0,-1.0629921,-186.02362,789.27165)"
         xml:space="preserve"
         stroke-miterlimit="10.433"
         font-style="normal"
         font-variant="normal"
         font-weight="normal"
         font-stretch="normal"
         font-size-adjust="none"
         letter-spacing="normal"
         word-spacing="normal"><path
           style="fill:#000000;stroke-width:0"
           d="m 470.16,438.09 0,0.05 0,0.06 0,0.05 0,0.05 0,0.05 0,0.05 0,0.04 0,0.05 0,0.04 0,0.04 -0.01,0.04 0,0.04 0,0.04 0,0.03 0,0.04 -0.01,0.03 -0.01,0.07 0,0.06 -0.02,0.05 -0.01,0.05 -0.02,0.05 -0.02,0.04 -0.02,0.04 -0.02,0.03 -0.03,0.03 -0.03,0.03 -0.04,0.03 -0.04,0.02 -0.04,0.02 -0.03,0.01 -0.02,0.01 -0.03,0 -0.02,0.01 -0.03,0.01 -0.03,0 -0.03,0.01 -0.03,0 -0.04,0.01 -0.03,0 -0.04,0 -0.03,0.01 -0.04,0 -0.04,0 -0.05,0 -0.04,0 -0.04,0 -0.05,0.01 -0.05,0 -0.05,0 -0.05,0 -0.05,0 c -3.09,-3.19 -7.47,-3.19 -9.06,-3.19 l 0,-1.55 c 1,0 3.93,0 6.51,1.3 l 0,-25.81 c 0,-1.8 -0.14,-2.39 -4.62,-2.39 l -1.6,0 0,-1.55 c 1.75,0.16 6.08,0.16 8.07,0.16 2,0 6.32,0 8.07,-0.16 l 0,1.55 -1.59,0 c -4.48,0 -4.64,0.54 -4.64,2.39 z"
           id="path5236"
           inkscape:connector-curvature="0" /><path
           style="fill:#000000;stroke-width:0"
           d="m 524.34,417.65 0.16,0 0.16,0 0.16,0.01 0.08,0 0.07,0.01 0.08,0 0.07,0.01 0.08,0.01 0.07,0.01 0.07,0.02 0.07,0.02 0.06,0.02 0.07,0.02 0.06,0.02 0.05,0.03 0.06,0.03 0.05,0.04 0.05,0.03 0.05,0.05 0.04,0.04 0.04,0.05 0.02,0.03 0.01,0.03 0.02,0.03 0.01,0.03 0.02,0.03 0.01,0.03 0.01,0.04 0.01,0.03 0.01,0.04 0.01,0.04 0.01,0.04 0,0.04 0.01,0.04 0,0.04 0,0.05 0,0.04 c 0,1 -0.9,1 -1.75,1 l -26.95,0 c -0.84,0 -1.73,0 -1.73,-1 0,-1 0.89,-1 1.73,-1 z"
           id="path5238"
           inkscape:connector-curvature="0" /><path
           style="fill:#000000;stroke-width:0"
           d="m 542.96,397.57 -0.01,-0.02 -0.01,-0.03 0,-0.03 -0.01,-0.02 0,-0.03 -0.01,-0.02 0,-0.02 -0.01,-0.03 0,-0.02 -0.01,-0.02 0,-0.02 -0.01,-0.02 0,-0.02 -0.01,-0.02 0,-0.04 -0.01,-0.03 -0.01,-0.03 0,-0.03 -0.01,-0.03 0,-0.03 -0.01,-0.02 0,-0.02 -0.01,-0.03 0,-0.02 0,-0.02 0,-0.01 -0.01,-0.02 0,-0.01 0,-0.02 0,-0.01 0,-0.02 0,-0.01 0,-0.01 0,-0.02 0,-0.02 0,-0.02 c 0,-0.74 0.54,-1.35 1.39,-1.35 1.04,0 1.64,0.91 1.75,1.05 0.23,0.45 1.84,7.13 3.19,12.52 0.98,-2 2.57,-3.35 4.92,-3.35 l -0.05,1.1 c -3.49,0 -4.28,3.98 -4.28,4.43 0,0.21 0.25,1.19 0.39,1.85 1.4,5.58 1.9,7.37 3,9.36 2.14,3.64 4.62,4.73 6.17,4.73 1.85,0 3.44,-1.44 3.44,-4.87 0,-2.75 -1.44,-8.33 -2.78,-10.77 -1.66,-3.14 -4.05,-4.73 -5.94,-4.73 l 0,0 0.05,-1.1 c 5.83,0 12.26,7.03 12.26,14.46 0,5.28 -3.3,8.1 -6.93,8.1 -4.83,0 -10.07,-4.98 -11.55,-11.06 z"
           id="path5240"
           inkscape:connector-curvature="0" /></g>    </g>
    <g
       id="g5438"
       transform="matrix(0.57156286,0,0,0.57156286,-15.002888,375.73933)">
      <g
         word-spacing="normal"
         letter-spacing="normal"
         font-size-adjust="none"
         font-stretch="normal"
         font-weight="normal"
         font-variant="normal"
         font-style="normal"
         stroke-miterlimit="10.433"
         xml:space="preserve"
         transform="matrix(1.0629921,0,0,-1.0629921,-186.02362,789.27165)"
         id="g5440"
         style="font-style:normal;font-variant:normal;font-weight:normal;font-stretch:normal;letter-spacing:normal;word-spacing:normal;text-anchor:start;fill:none;fill-opacity:1;fill-rule:evenodd;stroke:#000000;stroke-linecap:butt;stroke-linejoin:miter;stroke-miterlimit:10.43299961;stroke-dasharray:none;stroke-dashoffset:0;stroke-opacity:1"><path
           id="path5442"
           d="m 487.66,454.02206 0,0.02 0,0.02 0,0.01 -0.01,0.02 0,0.02 0,0.02 -0.01,0.02 0,0.02 -0.01,0.02 -0.01,0.02 -0.01,0.02 -0.01,0.02 -0.01,0.02 -0.01,0.02 -0.01,0.02 -0.02,0.02 -0.02,0.02 -0.01,0.02 -0.02,0.02 -0.02,0.02 -0.02,0.01 -0.03,0.02 -0.02,0.01 -0.03,0.02 -0.02,0.01 -0.03,0.01 -0.02,0.01 -0.01,0 -0.02,0.01 -0.02,0 -0.01,0 -0.02,0.01 -0.02,0 -0.02,0 -0.02,0 -0.02,0 -0.02,0 -0.02,0 c -0.25,0 -0.31,-0.04 -0.9,-0.75 l -2.39,-2.84 c -1.3,2.34 -3.89,3.59 -7.13,3.59 -6.33,0 -12.3,-5.73 -12.3,-11.76 0,-4.03 2.65,-6.33 5.18,-7.06 l 5.32,-1.41 c 1.85,-0.44 4.6,-1.19 4.6,-5.28 0,-4.49 -4.1,-9.16 -8.97,-9.16 -3.19,0 -8.72,1.1 -8.72,7.27 0,1.2 0.25,2.39 0.3,2.69 0.04,0.2 0.09,0.25 0.09,0.35 0,0.5 -0.34,0.55 -0.59,0.55 -0.25,0 -0.35,-0.05 -0.5,-0.2 -0.21,-0.2 -2.99,-11.56 -2.99,-11.7 0,-0.3 0.25,-0.5 0.55,-0.5 0.25,0 0.3,0.04 0.89,0.75 l 2.45,2.82 c 2.14,-2.89 5.52,-3.57 8.41,-3.57 6.78,0 12.66,6.62 12.66,12.79 0,3.44 -1.69,5.14 -2.44,5.83 -1.14,1.16 -1.89,1.34 -6.33,2.5 -1.09,0.3 -2.89,0.8 -3.34,0.89 -1.35,0.45 -3.03,1.89 -3.03,4.53 0,4.05 3.98,8.28 8.71,8.28 4.15,0 7.18,-2.14 7.18,-7.73 0,-1.59 -0.21,-2.49 -0.21,-2.78 0,-0.05 0,-0.5 0.61,-0.5 0.5,0 0.55,0.15 0.74,1 z"
           style="fill:#000000;stroke-width:0"
           inkscape:connector-curvature="0" /></g>    </g>
    <g
       id="g5841"
       transform="matrix(0.60267084,0,0,0.60267084,-26.022285,289.44485)">
      <g
         word-spacing="normal"
         letter-spacing="normal"
         font-size-adjust="none"
         font-stretch="normal"
         font-weight="normal"
         font-variant="normal"
         font-style="normal"
         stroke-miterlimit="10.433"
         xml:space="preserve"
         transform="matrix(1.0629921,0,0,-1.0629921,-186.02362,789.27165)"
         id="g5843"
         style="font-style:normal;font-variant:normal;font-weight:normal;font-stretch:normal;letter-spacing:normal;word-spacing:normal;text-anchor:start;fill:none;fill-opacity:1;fill-rule:evenodd;stroke:#000000;stroke-linecap:butt;stroke-linejoin:miter;stroke-miterlimit:10.43299961;stroke-dasharray:none;stroke-dashoffset:0;stroke-opacity:1"><path
           id="path5845"
           d="m 457.16,397.57 -0.01,-0.02 0,-0.03 -0.01,-0.03 0,-0.02 -0.01,-0.03 -0.01,-0.02 0,-0.02 -0.01,-0.03 0,-0.02 -0.01,-0.02 0,-0.02 0,-0.02 -0.01,-0.02 0,-0.02 -0.01,-0.04 -0.01,-0.03 0,-0.03 -0.01,-0.03 -0.01,-0.03 0,-0.03 -0.01,-0.02 0,-0.02 0,-0.03 -0.01,-0.02 0,-0.02 0,-0.01 0,-0.02 0,-0.01 -0.01,-0.02 0,-0.01 0,-0.02 0,-0.01 0,-0.01 0,-0.02 0,-0.02 0,-0.02 c 0,-0.74 0.55,-1.35 1.39,-1.35 1.05,0 1.64,0.91 1.75,1.05 0.23,0.45 1.84,7.13 3.19,12.52 0.98,-2 2.58,-3.35 4.92,-3.35 l -0.05,1.1 c -3.48,0 -4.28,3.98 -4.28,4.43 0,0.21 0.25,1.19 0.39,1.85 1.41,5.58 1.91,7.37 3,9.36 2.14,3.64 4.63,4.73 6.17,4.73 1.85,0 3.44,-1.44 3.44,-4.87 0,-2.75 -1.44,-8.33 -2.78,-10.77 -1.66,-3.14 -4.05,-4.73 -5.94,-4.73 l 0,0 0.05,-1.1 c 5.83,0 12.27,7.03 12.27,14.46 0,5.28 -3.3,8.1 -6.94,8.1 -4.83,0 -10.06,-4.98 -11.55,-11.06 z"
           style="fill:#000000;stroke-width:0" /></g>    </g>
    <g
       transform="matrix(0.53539893,0,0,0.53539893,-109.91113,377.6758)"
       id="g6023">
      <g
         style="font-style:normal;font-variant:normal;font-weight:normal;font-stretch:normal;letter-spacing:normal;word-spacing:normal;text-anchor:start;fill:none;fill-opacity:1;fill-rule:evenodd;stroke:#000000;stroke-linecap:butt;stroke-linejoin:miter;stroke-miterlimit:10.43299961;stroke-dasharray:none;stroke-dashoffset:0;stroke-opacity:1"
         id="g6025"
         transform="matrix(1.0629921,0,0,-1.0629921,-186.02362,789.27165)"
         xml:space="preserve"
         stroke-miterlimit="10.433"
         font-style="normal"
         font-variant="normal"
         font-weight="normal"
         font-stretch="normal"
         font-size-adjust="none"
         letter-spacing="normal"
         word-spacing="normal"><path
           style="fill:#000000;stroke-width:0"
           d="m 474.16,436.34 0.04,0.16 0.04,0.16 0.04,0.15 0.04,0.15 0.04,0.13 0.05,0.13 0.05,0.13 0.05,0.11 0.06,0.12 0.06,0.1 0.08,0.1 0.08,0.09 0.09,0.09 0.1,0.08 0.11,0.08 0.12,0.07 0.13,0.06 0.15,0.06 0.16,0.06 0.18,0.05 0.09,0.02 0.1,0.02 0.1,0.02 0.11,0.02 0.11,0.02 0.11,0.02 0.12,0.02 0.13,0.01 0.13,0.01 0.14,0.02 0.14,0.01 0.14,0.01 0.15,0.01 0.16,0.01 0.16,0.01 0.17,0.01 0.17,0 0.18,0.01 0.18,0 0.19,0.01 0.2,0 0.2,0 0.21,0 0.22,0 c 1.49,0 1.89,0 1.89,0.96 0,0.59 -0.54,0.59 -0.79,0.59 -1.66,0 -5.74,-0.16 -7.38,-0.16 -1.5,0 -5.14,0.16 -6.62,0.16 -0.36,0 -0.96,0 -0.96,-1 0,-0.55 0.46,-0.55 1.39,-0.55 0.11,0 1.05,0 1.91,-0.09 0.89,-0.11 1.34,-0.16 1.34,-0.8 0,-0.2 -0.06,-0.36 -0.2,-0.95 l -6.67,-26.75 c -0.5,-1.95 -0.61,-2.34 -4.55,-2.34 -0.84,0 -1.34,0 -1.34,-1 0,-0.55 0.45,-0.55 1.34,-0.55 l 23.08,0 c 1.19,0 1.23,0 1.55,0.84 l 3.92,10.77 c 0.2,0.55 0.2,0.64 0.2,0.7 0,0.19 -0.14,0.55 -0.59,0.55 -0.46,0 -0.5,-0.25 -0.85,-1.05 -1.7,-4.59 -3.89,-10.26 -12.51,-10.26 l -4.67,0 c -0.71,0 -0.8,0 -1.1,0.04 -0.5,0.05 -0.65,0.1 -0.65,0.5 0,0.14 0,0.25 0.25,1.14 z"
           id="path6027"
           inkscape:connector-curvature="0" /><path
           style="fill:#000000;stroke-width:0"
           d="m 507.46,409.87 0,0.71 -0.02,0.68 -0.03,0.66 -0.04,0.64 -0.06,0.62 -0.07,0.6 -0.09,0.57 -0.11,0.56 -0.13,0.55 -0.15,0.53 -0.17,0.51 -0.19,0.5 -0.21,0.49 -0.24,0.48 -0.26,0.47 -0.14,0.23 -0.15,0.23 c -1.08,1.61 -3.23,3 -6.03,3 l 0,-0.98 c 1.89,0 3.7,-1.14 4.33,-3.17 0.56,-1.88 0.59,-4.39 0.59,-7.43 0,-2.57 0,-5.15 -0.45,-7.34 -0.7,-3.17 -3.06,-3.94 -4.47,-3.94 l 0,0 c -1.59,0 -3.72,0.94 -4.42,3.8 -0.49,2.05 -0.49,4.91 -0.49,7.48 0,2.55 0,5.21 0.52,7.11 0.73,2.75 2.97,3.49 4.39,3.49 l 0,0.98 c -8.08,0 -8.08,-9.51 -8.08,-12.03 0,-2.5 0,-11.81 8.08,-11.81 8.09,0 8.09,9.31 8.09,11.81 z"
           id="path6029"
           inkscape:connector-curvature="0" /></g>    </g>
    <g
       id="g6215"
       transform="matrix(0.5421678,0,0,0.5421678,-90.215154,457.8782)">
      <g
         word-spacing="normal"
         letter-spacing="normal"
         font-size-adjust="none"
         font-stretch="normal"
         font-weight="normal"
         font-variant="normal"
         font-style="normal"
         stroke-miterlimit="10.433"
         xml:space="preserve"
         transform="matrix(1.0629921,0,0,-1.0629921,-186.02362,789.27165)"
         id="g6217"
         style="font-style:normal;font-variant:normal;font-weight:normal;font-stretch:normal;letter-spacing:normal;word-spacing:normal;text-anchor:start;fill:none;fill-opacity:1;fill-rule:evenodd;stroke:#000000;stroke-linecap:butt;stroke-linejoin:miter;stroke-miterlimit:10.43299961;stroke-dasharray:none;stroke-dashoffset:0;stroke-opacity:1"><path
           id="path6219"
           d="m 474.16,436.34 0.04,0.16 0.04,0.16 0.04,0.15 0.04,0.15 0.04,0.13 0.05,0.13 0.05,0.13 0.05,0.11 0.06,0.12 0.06,0.1 0.08,0.1 0.08,0.09 0.09,0.09 0.1,0.08 0.11,0.08 0.12,0.07 0.13,0.06 0.15,0.06 0.16,0.06 0.18,0.05 0.09,0.02 0.1,0.02 0.1,0.02 0.11,0.02 0.11,0.02 0.11,0.02 0.12,0.02 0.13,0.01 0.13,0.01 0.14,0.02 0.14,0.01 0.14,0.01 0.15,0.01 0.16,0.01 0.16,0.01 0.17,0.01 0.17,0 0.18,0.01 0.18,0 0.19,0.01 0.2,0 0.2,0 0.21,0 0.22,0 c 1.49,0 1.89,0 1.89,0.96 0,0.59 -0.54,0.59 -0.79,0.59 -1.66,0 -5.74,-0.16 -7.38,-0.16 -1.5,0 -5.14,0.16 -6.62,0.16 -0.36,0 -0.96,0 -0.96,-1 0,-0.55 0.46,-0.55 1.39,-0.55 0.11,0 1.05,0 1.91,-0.09 0.89,-0.11 1.34,-0.16 1.34,-0.8 0,-0.2 -0.06,-0.36 -0.2,-0.95 l -6.67,-26.75 c -0.5,-1.95 -0.61,-2.34 -4.55,-2.34 -0.84,0 -1.34,0 -1.34,-1 0,-0.55 0.45,-0.55 1.34,-0.55 l 23.08,0 c 1.19,0 1.23,0 1.55,0.84 l 3.92,10.77 c 0.2,0.55 0.2,0.64 0.2,0.7 0,0.19 -0.14,0.55 -0.59,0.55 -0.46,0 -0.5,-0.25 -0.85,-1.05 -1.7,-4.59 -3.89,-10.26 -12.51,-10.26 l -4.67,0 c -0.71,0 -0.8,0 -1.1,0.04 -0.5,0.05 -0.65,0.1 -0.65,0.5 0,0.14 0,0.25 0.25,1.14 z"
           style="fill:#000000;stroke-width:0"
           inkscape:connector-curvature="0" /><path
           id="path6221"
           d="m 506.42,419.84 0.01,0.05 0.01,0.04 0.01,0.05 0.01,0.04 0.01,0.04 0.01,0.04 0.01,0.04 0.01,0.04 0.02,0.07 0.02,0.07 0.02,0.07 0.02,0.05 0.02,0.06 0.02,0.05 0.02,0.05 0.02,0.05 0.02,0.04 0.03,0.03 0.02,0.04 0.03,0.03 0.03,0.03 0.03,0.03 0.03,0.02 0.03,0.02 0.04,0.02 0.03,0.02 0.04,0.01 0.05,0.02 0.04,0.01 0.05,0.01 0.05,0.01 0.06,0.01 0.06,0.01 0.06,0 0.07,0.01 0.07,0.01 c 0.17,0.03 1.39,0.03 2.09,0.03 2.12,0 3.03,0 3.89,-0.28 1.58,-0.49 1.64,-1.5 1.64,-2.75 0,-0.55 0,-1 -0.23,-2.82 l -0.08,-0.39 c 0,-0.34 0.25,-0.51 0.59,-0.51 0.53,0 0.6,0.31 0.67,0.86 l 0.94,6.65 c 0,0.5 -0.42,0.5 -1.04,0.5 l -21.44,0 c -0.86,0 -0.94,0 -1.17,-0.73 l -2.21,-6.17 c -0.03,-0.14 -0.17,-0.46 -0.17,-0.63 0,-0.14 0.06,-0.48 0.59,-0.48 0.46,0 0.52,0.17 0.74,0.83 2.01,5.57 3.17,5.92 8.47,5.92 l 1.45,0 c 1.05,0 1.08,-0.03 1.08,-0.35 0,-0.03 0,-0.2 -0.14,-0.73 l -4.6,-18.33 c -0.31,-1.28 -0.42,-1.64 -4.07,-1.64 -1.25,0 -1.57,0 -1.57,-0.76 0,-0.1 0.07,-0.49 0.6,-0.49 0.97,0 2.01,0.11 2.98,0.11 0.99,0 2.03,0.03 3,0.03 0.99,0 2.17,0 3.14,-0.03 0.94,-0.05 1.99,-0.11 2.92,-0.11 0.29,0 0.82,0 0.82,0.77 0,0.48 -0.36,0.48 -1.44,0.48 -0.66,0 -1.36,0.05 -2.02,0.08 -1.18,0.09 -1.25,0.23 -1.25,0.66 0,0.25 0,0.31 0.13,0.79 z"
           style="fill:#000000;stroke-width:0"
           inkscape:connector-curvature="0" /></g>    </g>
    <g
       transform="matrix(0.54443629,0,0,0.54443629,-70.904291,374.772)"
       id="g6415">
      <g
         style="font-style:normal;font-variant:normal;font-weight:normal;font-stretch:normal;letter-spacing:normal;word-spacing:normal;text-anchor:start;fill:none;fill-opacity:1;fill-rule:evenodd;stroke:#000000;stroke-linecap:butt;stroke-linejoin:miter;stroke-miterlimit:10.43299961;stroke-dasharray:none;stroke-dashoffset:0;stroke-opacity:1"
         id="g6417"
         transform="matrix(1.0629921,0,0,-1.0629921,-186.02362,789.27165)"
         xml:space="preserve"
         stroke-miterlimit="10.433"
         font-style="normal"
         font-variant="normal"
         font-weight="normal"
         font-stretch="normal"
         font-size-adjust="none"
         letter-spacing="normal"
         word-spacing="normal"><path
           style="fill:#000000;stroke-width:0"
           d="m 474.16,436.34 0.04,0.16 0.04,0.16 0.04,0.15 0.04,0.15 0.04,0.13 0.05,0.13 0.05,0.13 0.05,0.11 0.06,0.12 0.06,0.1 0.08,0.1 0.08,0.09 0.09,0.09 0.1,0.08 0.11,0.08 0.12,0.07 0.13,0.06 0.15,0.06 0.16,0.06 0.18,0.05 0.09,0.02 0.1,0.02 0.1,0.02 0.11,0.02 0.11,0.02 0.11,0.02 0.12,0.02 0.13,0.01 0.13,0.01 0.14,0.02 0.14,0.01 0.14,0.01 0.15,0.01 0.16,0.01 0.16,0.01 0.17,0.01 0.17,0 0.18,0.01 0.18,0 0.19,0.01 0.2,0 0.2,0 0.21,0 0.22,0 c 1.49,0 1.89,0 1.89,0.96 0,0.59 -0.54,0.59 -0.79,0.59 -1.66,0 -5.74,-0.16 -7.38,-0.16 -1.5,0 -5.14,0.16 -6.62,0.16 -0.36,0 -0.96,0 -0.96,-1 0,-0.55 0.46,-0.55 1.39,-0.55 0.11,0 1.05,0 1.91,-0.09 0.89,-0.11 1.34,-0.16 1.34,-0.8 0,-0.2 -0.06,-0.36 -0.2,-0.95 l -6.67,-26.75 c -0.5,-1.95 -0.61,-2.34 -4.55,-2.34 -0.84,0 -1.34,0 -1.34,-1 0,-0.55 0.45,-0.55 1.34,-0.55 l 23.08,0 c 1.19,0 1.23,0 1.55,0.84 l 3.92,10.77 c 0.2,0.55 0.2,0.64 0.2,0.7 0,0.19 -0.14,0.55 -0.59,0.55 -0.46,0 -0.5,-0.25 -0.85,-1.05 -1.7,-4.59 -3.89,-10.26 -12.51,-10.26 l -4.67,0 c -0.71,0 -0.8,0 -1.1,0.04 -0.5,0.05 -0.65,0.1 -0.65,0.5 0,0.14 0,0.25 0.25,1.14 z"
           id="path6419"
           inkscape:connector-curvature="0" /><path
           style="fill:#000000;stroke-width:0"
           d="m 503.87,419.81 0.03,0.11 0.03,0.1 0.03,0.1 0.02,0.09 0.03,0.09 0.03,0.09 0.03,0.08 0.03,0.07 0.04,0.08 0.04,0.06 0.04,0.07 0.05,0.06 0.05,0.05 0.06,0.05 0.06,0.05 0.07,0.04 0.08,0.04 0.08,0.04 0.09,0.04 0.1,0.03 0.11,0.03 0.05,0.01 0.06,0.01 0.06,0.01 0.07,0.01 0.07,0.01 0.07,0.01 0.07,0.01 0.07,0.01 0.08,0.01 0.08,0 0.09,0.01 0.08,0 0.09,0.01 0.1,0 0.09,0.01 0.1,0 0.1,0 0.11,0.01 0.11,0 0.11,0 0.12,0 0.12,0 c 0.88,0 1.28,0 1.28,0.73 0,0.32 -0.23,0.52 -0.54,0.52 -0.74,0 -1.61,-0.11 -2.35,-0.11 -0.76,0 -1.59,-0.03 -2.36,-0.03 0,0 -2.4,0.03 -2.4,0.03 -0.77,0 -1.64,0.11 -2.41,0.11 -0.22,0 -0.73,0 -0.73,-0.77 0,-0.48 0.39,-0.48 1.15,-0.48 0.03,0 0.72,0 1.31,-0.08 0.71,-0.06 0.96,-0.09 0.96,-0.48 0,-0.21 -0.08,-0.46 -0.14,-0.74 L 496,401.51 c -0.29,-1.14 -0.39,-1.5 -3,-1.5 -0.94,0 -1.29,0 -1.29,-0.76 0,-0.04 0,-0.49 0.55,-0.49 1.05,0 3.67,0.14 4.7,0.14 l 2.41,-0.03 c 0.77,0 1.64,-0.11 2.41,-0.11 0.22,0 0.73,0 0.73,0.77 0,0.48 -0.42,0.48 -1.11,0.48 -0.08,0 -0.81,0 -1.5,0.08 -0.81,0.06 -0.81,0.2 -0.81,0.52 0,0.03 0,0.25 0.14,0.76 z"
           id="path6421"
           inkscape:connector-curvature="0" /></g>    </g>
  </g>
</svg>
