<svg xmlns="http://www.w3.org/2000/svg" xmlns:xlink="http://www.w3.org/1999/xlink" width="1203.25" height="613.5"><g transform="translate(-315 -390)"><path d="M1185 620h100v80h-100z" stroke="#000" stroke-width="2" fill="#fff"/><use xlink:href="#a" transform="matrix(1,0,0,1,1193,628) translate(42 38.66666666666667)"/><path d="M812 613.1h120.18v96.15H812z" stroke="#000" stroke-width="2" fill="#fff"/><use xlink:href="#b" transform="matrix(1,0,0,1,820,621.0999999999999) translate(29.69135802469136 44.94444444444444)"/><path d="M997.25 497.54h101.83v72.13c-16.97-12.02-27.58-12.02-33.94-12.02-10.18 0-23.76 12.02-33.95 12.02-6.37 0-16.98 0-33.95-12.02z" stroke="#000" stroke-width="2" fill="#fff"/><path d="M1002.9 503.9h101.84v72.14C1087.77 564 1077.16 564 1070.8 564c-10.2 0-23.77 12.04-33.95 12.04-6.36 0-16.97 0-33.94-12.03z" stroke="#000" stroke-width="2" fill="#fff"/><path d="M1008.56 510.27h101.84v72.13c-16.97-12.02-27.58-12.02-33.95-12.02-10.18 0-23.76 12.02-33.94 12.02-6.36 0-16.96 0-33.94-12.02z" stroke="#000" stroke-width="2" fill="#fff"/><use xlink:href="#c" transform="matrix(1,0,0,1,1013.5631999999998,515.2656) translate(7.907407407407405 20.166666666666668)"/><use xlink:href="#d" transform="matrix(1,0,0,1,1013.5631999999998,515.2656) translate(68.57407407407408 20.166666666666668)"/><use xlink:href="#e" transform="matrix(1,0,0,1,1013.5631999999998,515.2656) translate(8.666666666666671 36.16666666666667)"/><path d="M933.38 637.32H1056v.6h122.62" stroke="#000" stroke-width="2" fill="none"/><path d="M947.65 641.95l-14.27-4.63 14.27-4.64z"/><path d="M948.65 643.33l-16.47-5.35v-1.32l16.47-5.35zm-12.03-6l10.03 3.25v-6.52zM1178.62 637.9l-14.27 4.64v-9.27z"/><path d="M1179.45 637.13v1.56l-16.1 5.22V631.9zm-14.1 4.04l10.03-3.26-10.03-3.25z"/><path fill="#fff" d="M1022.05 626.8h67.9v21.6h-67.9z"/><use xlink:href="#f" transform="matrix(1,0,0,1,1022.0507113821138,626.8120013066202) translate(0 14.4)"/><path d="M872.1 709.25V895.9" stroke="#000" stroke-width="2" fill="none"/><path d="M872.1 895.9l-4.64-14.28h9.27z"/><path d="M872.73 897.15l-1.43-.47-5.22-16.06h12.02zm-3.9-14.53l3.26 10.03 3.25-10.03z"/><path fill="#fff" d="M845.14 791.77h53.9v21.6h-53.9z"/><use xlink:href="#g" transform="matrix(1,0,0,1,845.1414634146341,791.7681286279138) translate(0 14.4)"/><path d="M834.67 711.75v191.08" stroke="#000" stroke-width="2" fill="none"/><path d="M834.67 711.75l4.63 14.27h-9.27z" stroke="#000" stroke-width="2"/><path d="M835.67 903.34l-1.3.94-.7.68v-2.13h2z"/><path fill="#fff" d="M790.72 845.98h87.9v21.6h-87.9z"/><use xlink:href="#h" transform="matrix(1,0,0,1,790.7166666666666,845.9755185126088) translate(0 14.4)"/><path d="M1304.95 790.5c0 5.57-4.53 10.1-10.1 10.1-5.58 0-10.1-4.53-10.1-10.1 0-5.58 4.52-10.1 10.1-10.1 5.57 0 10.1 4.52 10.1 10.1z" stroke="#000" stroke-width="2" fill="#fff"/><path d="M1272 780.4h45.7v80.8H1272z" fill="none"/><path d="M1294.85 800.6v28.28l22.84 32.32m-22.85-32.32L1272 861.2m0-50.5h45.7" stroke="#000" stroke-width="2" fill="none"/><use xlink:href="#i" transform="matrix(1,0,0,1,1192,861.1999999999999) translate(57.3 14.6)"/><use xlink:href="#j" transform="matrix(1,0,0,1,1192,861.1999999999999) translate(95.85 14.6)"/><path d="M1444 656.6h-158" stroke="#000" stroke-width="2" fill="none"/><path d="M1300.27 661.23L1286 656.6l14.27-4.64z"/><path d="M1301.27 662.6l-16.27-5.28v-1.45l16.27-5.28zm-12.03-6l10.03 3.26v-6.52z"/><path fill="#fff" d="M1342.03 635h45.95v43.2h-45.95z"/><use xlink:href="#k" transform="matrix(1,0,0,1,1342.025,634.9979381443299) translate(0 14.4)"/><use xlink:href="#l" transform="matrix(1,0,0,1,1342.025,634.9979381443299) translate(0 36)"/><use xlink:href="#m" transform="matrix(1,0,0,1,1342.025,634.9979381443299) translate(25.95 36)"/><path d="M415 660h72.5v1.4H560" stroke="#000" stroke-width="2" fill="none"/><path d="M415 661h-.06l.06-1-.04-1h.04zM560 661.4l-14.27 4.64v-9.27z"/><path d="M560 660.35v2.1l-15.27 4.96v-12zm-13.27 4.3l10.03-3.25-10.03-3.26z"/><path fill="#fff" d="M442.46 649.2h73.9v21.6h-73.9z"/><use xlink:href="#n" transform="matrix(1,0,0,1,442.45955922135624,649.2) translate(0 14.4)"/><path d="M933.4 637.32l15.73-.37 12.18-.9 9.78-1.2 8.02-1.4 6.72-1.5 5.7-1.58 4.88-1.62 4.24-1.65 3.72-1.65 3.28-1.66 2.92-1.67 2.6-1.67 2.37-1.67 2.13-1.68 1.93-1.68 1.76-1.7 1.62-1.7 1.48-1.74 1.37-1.77 1.25-1.8 1.16-1.84 1.06-1.9.97-1.97.9-2.03.8-2.12.7-2.2.63-2.34.53-2.46.44-2.6.32-2.8.13-1.85" stroke="#000" stroke-width="2" fill="none"/><path d="M933.4 638.32l-1.22.03v-2l1.18-.03zM1034.38 581.92l1.18.07 7.06 20.12-1.9.66-6.38-18.22-12.9 14.37-1.48-1.33 14.13-15.75z"/><path d="M1178.62 637.9l-9.58-.2-8.46-.58-7.55-.86-6.8-1.1-6.18-1.27-5.65-1.45-5.2-1.58-4.83-1.7-4.5-1.83-4.2-1.94-3.94-2.04-3.74-2.15-3.55-2.26-3.37-2.37-3.22-2.5-3.1-2.62-2.96-2.77-2.86-2.9-2.76-3.1-2.68-3.28-2.6-3.5-2.5-3.7-2.44-4-2.36-4.3-2.3-4.66-2.2-5.06-.5-1.23" stroke="#000" stroke-width="2" fill="none"/><path d="M1179.45 636.94v2l-.87-.03.07-2zM1086.57 583.88l-1.12 1.65-16-10.8-1.76 19.23-2-.18 1.93-21.12 1.46-.6z"/><path d="M812 661.17H708.85v.23H605.7" fill="none"/><path d="M812 661.17h-9.84m-9.83 0h-19.67m-9.84 0h-19.67m-9.83 0h-19.67m-9.6.23h-19.68m-9.83 0h-19.67m-9.84 0h-19.67m-9.83 0h-9.84" stroke="#000" stroke-width="2" fill="none"/><path d="M619.96 666.04l-14.27-4.64 14.26-4.63z" fill="#fff"/><path d="M620.96 667.4l-15.27-4.95v-2.1l15.26-4.96zm-12.03-6l10.03 3.26v-6.52z"/><path fill="#fff" d="M653.87 639.7h109.95v43.2H653.87z"/><use xlink:href="#o" transform="matrix(1,0,0,1,653.8703608247423,639.6876162936887) translate(38.03 14.4)"/><use xlink:href="#p" transform="matrix(1,0,0,1,653.8703608247423,639.6876162936887) translate(0.005000000000002558 36)"/><use xlink:href="#q" transform="matrix(1,0,0,1,653.8703608247423,639.6876162936887) translate(75.95500000000001 36)"/><path d="M871 410.4c13.25 0 24 16.74 24 37.4s-10.75 37.4-24 37.4h-72c-13.25 0-24-16.74-24-37.4s10.75-37.4 24-37.4z" stroke="#000" stroke-width="2" fill="#fff"/><use xlink:href="#r" transform="matrix(1,0,0,1,780,415.40000000000003) translate(22.549999999999997 14.500000000000002)"/><use xlink:href="#s" transform="matrix(1,0,0,1,780,415.40000000000003) translate(12.524999999999999 36.1)"/><use xlink:href="#t" transform="matrix(1,0,0,1,780,415.40000000000003) translate(34.525 57.7)"/><path d="M731 410c13.25 0 24 16.74 24 37.4s-10.75 37.4-24 37.4h-72c-13.25 0-24-16.74-24-37.4s10.75-37.4 24-37.4z" stroke="#000" stroke-width="2" fill="#fff"/><use xlink:href="#u" transform="matrix(1,0,0,1,640,415) translate(22.074999999999996 25.299999999999997)"/><use xlink:href="#v" transform="matrix(1,0,0,1,640,415) translate(21.549999999999997 46.9)"/><path d="M872.1 613.1v-64.15H695V484.8" stroke="#000" stroke-width="2" fill="none"/><path d="M699.64 499.07h-9.28L695 484.8z"/><path d="M701 500.07h-12l4.95-15.27h2.1zm-9.26-2h6.52L695 488.04z"/><path d="M872.1 613.1v-63.95H835V485.2" stroke="#000" stroke-width="2" fill="none"/><path d="M839.64 499.47h-9.28L835 485.2z"/><path d="M841 500.47h-12l4.95-15.27h2.1zm-9.26-2h6.52L835 488.44z"/><path fill="#fff" d="M841.64 573.53h60.9v21.6h-60.9z"/><use xlink:href="#w" transform="matrix(1,0,0,1,841.6414634146341,573.5333333333334) translate(0 14.4)"/><path d="M1179.45 616.05h100v80h-100z" stroke="#000" stroke-width="2" fill="#fff"/><use xlink:href="#x" transform="matrix(1,0,0,1,1187.45,624.05) translate(19.19135802469136 36.44444444444444)"/><path d="M933.38 683.6h122.5v1.33h122.5" stroke="#000" stroke-width="2" fill="none"/><path d="M933.38 684.6h-1.2v-2h1.2z"/><path d="M1178.37 684.93l-14.27 4.63v-9.27z" stroke="#000" stroke-width="2"/><path fill="#fff" d="M1040.88 673.46h30v21.6h-30z"/><use xlink:href="#y" transform="matrix(1,0,0,1,1040.8757113821139,673.4574281358886) translate(0 14.4)"/><path d="M908 943.5c0 22.1-17.9 40-40 40s-40-17.9-40-40 17.9-40 40-40 40 17.9 40 40z" stroke="#000" stroke-width="2" fill="#fff"/><use xlink:href="#z" transform="matrix(1,0,0,1,833,908.5) translate(35 40.4)"/><path d="M904 939.5c0 22.1-17.9 40-40 40s-40-17.9-40-40 17.9-40 40-40 40 17.9 40 40z" stroke="#000" stroke-width="2" fill="#fff"/><use xlink:href="#z" transform="matrix(1,0,0,1,829,904.5) translate(35 40.4)"/><path d="M900 935c0 22.1-17.9 40-40 40s-40-17.9-40-40 17.9-40 40-40 40 17.9 40 40z" stroke="#000" stroke-width="2" fill="#fff"/><use xlink:href="#A" transform="matrix(1,0,0,1,825,900) translate(18.049999999999997 38.6)"/><path d="M1043 790.1h100v80h-100z" stroke="#000" stroke-width="2" fill="#fff"/><use xlink:href="#B" transform="matrix(1,0,0,1,1051,798.0999999999999) translate(2.4938271604938222 20.888888888888886)"/><use xlink:href="#C" transform="matrix(1,0,0,1,1051,798.0999999999999) translate(8.098765432098759 47.55555555555556)"/><path d="M908.15 710.45V814H1042" stroke="#000" stroke-width="2" fill="none"/><path d="M912.78 724.7h-9.27l4.65-14.25z"/><path d="M914.16 725.7h-12.03l5.36-16.45h1.3zm-9.27-2h6.5l-3.25-10.02zM1042 814l-14.27 4.64v-9.28z"/><path d="M1043 813.27v1.46l-16.27 5.28v-12zm-14.27 4l10.03-3.27-10.03-3.26z"/><path fill="#fff" d="M885.02 747.2h46.25v21.6h-46.25z"/><use xlink:href="#D" transform="matrix(1,0,0,1,885.0213414634146,747.2) translate(0 14.4)"/><path d="M1143 830.1h64.5v1.7h64.5" stroke="#000" stroke-width="2" fill="none"/><path d="M1157.27 834.74L1143 830.1l14.27-4.64z"/><path d="M1158.27 836.1l-15.27-4.95v-2.1l15.27-4.96zm-12.03-6l10.03 3.26v-6.52zM1272 831.8l-14.27 4.63v-9.27z"/><path d="M1272 830.75v2.1l-15.27 4.96v-12zm-13.27 4.3l10.03-3.25-10.03-3.26z"/><path fill="#fff" d="M1184.38 820.15h46.25v21.6h-46.25z"/><use xlink:href="#D" transform="matrix(1,0,0,1,1184.375,820.1489690721648) translate(0 14.4)"/><path d="M423 668.5c0 22.1-17.9 40-40 40s-40-17.9-40-40 17.9-40 40-40 40 17.9 40 40z" stroke="#000" stroke-width="2" fill="#fff"/><use xlink:href="#z" transform="matrix(1,0,0,1,348,633.5) translate(35 40.4)"/><path d="M419 664.5c0 22.1-17.9 40-40 40s-40-17.9-40-40 17.9-40 40-40 40 17.9 40 40z" stroke="#000" stroke-width="2" fill="#fff"/><use xlink:href="#z" transform="matrix(1,0,0,1,344,629.5) translate(35 40.4)"/><path d="M415 660c0 22.1-17.9 40-40 40s-40-17.9-40-40 17.9-40 40-40 40 17.9 40 40z" stroke="#000" stroke-width="2" fill="#fff"/><use xlink:href="#E" transform="matrix(1,0,0,1,340,625) translate(13.549999999999997 38.6)"/><path d="M872.1 895.9l1.25-3.62 1.32-3.3 1.36-3.05 1.4-2.82 1.45-2.62 1.5-2.45 1.52-2.3 1.58-2.18 1.64-2.05 1.7-1.96 1.74-1.86 1.82-1.77 1.9-1.7 1.97-1.63 2.08-1.57 2.2-1.52 2.3-1.46 2.47-1.42 2.62-1.37 2.83-1.32 3.05-1.27 3.34-1.24 3.66-1.2 4.07-1.12 4.57-1.06 5.24-1 6.1-.88 7.36-.76 9.3-.57 12.98-.22 29.02.8 44.02 1.42h.54" fill="none"/><path d="M872.1 895.9l1.25-3.62 1.32-3.3 1.34-3m5.25-9.28l.65-.98 1.58-2.17 1.64-2.05 1.7-1.96 1.74-1.86 1.82-1.77 1.9-1.7 1.97-1.63 1.64-1.24m9.05-5.6l.97-.5 2.83-1.32 3.05-1.27 3.34-1.24 3.66-1.2 4.07-1.12 2.12-.5m10.47-1.96l3.32-.48 7.34-.76 9.3-.57h1.27m10.67-.2l1.05-.02 20.28.55m10.66.3l21.32.7m10.66.34l10.12.33h.54" stroke="#000" stroke-width="2" fill="none"/><path d="M873 896.28l-.35.84-1.9-.62.42-1zM1043 846.25v1.14l-18.04 9.9-.97-1.74 16.04-8.82-15.46-9.8 1.07-1.7z"/><path d="M1476.95 615.3c0 5.57-4.53 10.1-10.1 10.1-5.58 0-10.1-4.53-10.1-10.1 0-5.58 4.52-10.1 10.1-10.1 5.57 0 10.1 4.52 10.1 10.1z" stroke="#000" stroke-width="2" fill="#fff"/><path d="M1444 605.2h45.7V686H1444z" fill="none"/><path d="M1466.85 625.4v28.28L1489.7 686m-22.85-32.32L1444 686m0-50.5h45.7" stroke="#000" stroke-width="2" fill="none"/><use xlink:href="#F" transform="matrix(1,0,0,1,1364.0000000000002,686) translate(74.25 14.6)"/><path d="M592.95 620.1c0 5.58-4.53 10.1-10.1 10.1-5.58 0-10.1-4.52-10.1-10.1s4.52-10.1 10.1-10.1c5.57 0 10.1 4.52 10.1 10.1z" stroke="#000" stroke-width="2" fill="#fff"/><path d="M560 610h45.7v80.8H560z" fill="none"/><path d="M582.85 630.2v28.28l22.84 32.32m-22.85-32.32L560 690.8m0-50.5h45.7" stroke="#000" stroke-width="2" fill="none"/><use xlink:href="#G" transform="matrix(1,0,0,1,480,690.8041237113403) translate(52.62499999999999 14.6)"/><use xlink:href="#j" transform="matrix(1,0,0,1,480,690.8041237113403) translate(100.525 14.6)"/><path d="M430 505h100v80H430z" stroke="#000" stroke-width="2" fill="#fff"/><use xlink:href="#B" transform="matrix(1,0,0,1,438,513) translate(2.4938271604938222 20.888888888888886)"/><use xlink:href="#H" transform="matrix(1,0,0,1,438,513) translate(3.654320987654323 47.55555555555556)"/><path d="M582.85 610v-65H530" stroke="#000" stroke-width="2" fill="none"/><path d="M582.85 610l-4.64-14.27h9.28z"/><path d="M583.9 610h-2.1l-4.97-15.27h12.03zm-4.3-13.27l3.25 10.03 3.25-10.03zM544.27 549.64L530 545l14.27-4.64z"/><path d="M545.27 551L530 546.06v-2.1l15.27-4.96zm-12.03-6l10.03 3.26v-6.52z"/><path fill="#fff" d="M559.72 562.9h46.25v21.6h-46.25z"/><use xlink:href="#D" transform="matrix(1,0,0,1,559.7203608247423,562.8886757339185) translate(0 14.4)"/><path d="M375 620v-75h55" fill="none"/><path d="M375 620v-10.83m0-10.84v-21.66m0-10.84V545h.83m10.84 0h21.66m10.84 0H430" stroke="#000" stroke-width="2" fill="none"/><path d="M376 620.06l-1-.06-1 .04V620h2zM430 543.84v2.32l-16.7 9.88-1.02-1.72 15.76-9.32-15.76-9.32 1-1.72z"/><path d="M1317.7 831.8l8.96.26 8.68-.15 8.4-.54 8.1-.92 7.8-1.25 7.5-1.6 7.18-1.85 6.88-2.14 6.57-2.38 6.27-2.62 5.97-2.84 5.68-3.03 5.4-3.2 5.1-3.4 4.82-3.52 2.5-1.97 5.02-4.3 4.68-4.48 4.36-4.64 4.04-4.78 3.73-4.95 3.44-5.1 3.14-5.26 2.86-5.4 2.56-5.6 2.27-5.74 1.97-5.94 1.7-6.13 1.37-6.35 1.06-6.58.73-6.82.37-7.1.05-3.45" fill="none"/><path d="M1317.7 831.8l8.96.26 1.44-.02m10.4-.34l5.24-.34 8.1-.92 7.33-1.18m10.17-2.22l4.98-1.3 6.88-2.13 6.57-2.38 1.36-.57m9.5-4.24l1.38-.64 5.68-3.03 5.4-3.2 5.1-3.4.38-.28m8.25-6.34l3.72-3.18 4.68-4.47 4.36-4.64 2-2.35m6.35-8.24l2.87-4.23 3.14-5.26 2.86-5.4 1.44-3.15m3.88-9.66l1.5-4.48 1.68-6.13 1.38-6.35.52-3.22m1.28-10.33l.36-6.95.05-3.45" stroke="#000" stroke-width="2" fill="none"/><path d="M1317.7 830.8v1.12-1.12z"/><path d="M1470.63 722.5l-9.26-.53 5.48-13.97z" fill="#fff"/><path d="M1471.94 723.6l-12-.72 7.1-18.1zm-9.13-2.55l6.5.4-2.65-10.22z"/><path fill="#fff" d="M1362.5 761.37h137.4v64.8h-137.4z"/><g><use xlink:href="#I" transform="matrix(1,0,0,1,1362.4985575409657,761.365290267409) translate(0 14.4)"/><use xlink:href="#J" transform="matrix(1,0,0,1,1362.4985575409657,761.365290267409) translate(38.550000000000004 14.4)"/><use xlink:href="#K" transform="matrix(1,0,0,1,1362.4985575409657,761.365290267409) translate(56.5 14.4)"/><use xlink:href="#L" transform="matrix(1,0,0,1,1362.4985575409657,761.365290267409) translate(0 36)"/><use xlink:href="#M" transform="matrix(1,0,0,1,1362.4985575409657,761.365290267409) translate(25.95 36)"/><use xlink:href="#N" transform="matrix(1,0,0,1,1362.4985575409657,761.365290267409) translate(0 57.6)"/><use xlink:href="#O" transform="matrix(1,0,0,1,1362.4985575409657,761.365290267409) translate(27.95 57.6)"/><use xlink:href="#P" transform="matrix(1,0,0,1,1362.4985575409657,761.365290267409) translate(69.9 57.6)"/><use xlink:href="#Q" transform="matrix(1,0,0,1,1362.4985575409657,761.365290267409) translate(86.9 57.6)"/></g><path d="M820 935l-36.67-.68-22.92-1.4-17.48-1.84-14.15-2.08-11.8-2.24-10.02-2.35-8.65-2.4-7.57-2.45-6.67-2.48-5.93-2.5-5.3-2.5-4.8-2.5-4.34-2.5-3.97-2.5-3.62-2.52-3.32-2.53-3.07-2.54-2.83-2.56-2.64-2.58-2.45-2.6-2.28-2.65-1.46-1.82-5.66-7.58-5.5-8.04-5.3-8.5-5.12-9-4.87-9.5-4.62-9.98-4.3-10.45-3.98-10.93-3.6-11.38-3.2-11.8-2.76-12.17-2.3-12.52-1.8-12.82-1.27-13.04-.73-13.23-.2-11.03" fill="none"/><path d="M820 935l-9.7-.18m-9.72-.18l-17.25-.32-2.16-.13m-9.7-.6l-11.06-.7-8.27-.86m-9.65-1.02l-13.7-2.02-5.48-1.04m-9.5-1.95l-6.85-1.6-8.65-2.4-3.24-1.05m-9.17-3.2l-1.84-.68-5.93-2.5-5.3-2.5-4.58-2.38m-8.32-5l-.2-.14-3.62-2.5-3.32-2.54-3.07-2.54-2.83-2.56-2-1.95m-6.46-7.23l-.36-.46-5.66-7.58-5.3-7.73m-5.15-8.23l-.36-.6-5.1-9-3.84-7.44m-4.15-8.77l-1.5-3.25-4.3-10.45-1.55-4.27m-3.22-9.16l-2.8-8.88-2.65-9.75m-2.23-9.44l-1.08-4.78-2.3-12.52-.25-1.77m-1.35-9.62l-.2-1.43-1.28-13.04-.27-4.85m-.5-9.7l-.15-9.7" stroke="#000" stroke-width="2" fill="none"/><path d="M820.06 934l-.06 1 .04 1h-.06l.04-2z"/><path d="M587.87 726.94l-9.27.25 4.25-14.4z" fill="#fff"/><path d="M589.27 727.9l-12.02.33 5.5-18.66zm-9.32-1.75l6.52-.17-3.54-9.94z"/><path fill="#fff" d="M578.1 867.35H705v43.2H578.1z"/><g><use xlink:href="#o" transform="matrix(1,0,0,1,578.0871715068685,867.3497909627331) translate(46.505 14.4)"/><use xlink:href="#R" transform="matrix(1,0,0,1,578.0871715068685,867.3497909627331) translate(0.005000000000002558 36)"/><use xlink:href="#q" transform="matrix(1,0,0,1,578.0871715068685,867.3497909627331) translate(92.905 36)"/></g><defs><path d="M212-179c-10-28-35-45-73-45-59 0-87 40-87 99 0 60 29 101 89 101 43 0 62-24 78-52l27 14C228-24 195 4 139 4 59 4 22-46 18-125c-6-104 99-153 187-111 19 9 31 26 39 46" id="S"/><path d="M160-131c35 5 61 23 61 61C221 17 115-2 30 0v-248c76 3 177-17 177 60 0 33-19 50-47 57zm-97-11c50-1 110 9 110-42 0-47-63-36-110-37v79zm0 115c55-2 124 14 124-45 0-56-70-42-124-44v89" id="T"/><path d="M30 0v-248h187v28H63v79h144v27H63v87h162V0H30" id="U"/><g id="b"><use transform="matrix(0.06172839506172839,0,0,0.06172839506172839,0,0)" xlink:href="#S"/><use transform="matrix(0.06172839506172839,0,0,0.06172839506172839,15.987654320987653,0)" xlink:href="#T"/><use transform="matrix(0.06172839506172839,0,0,0.06172839506172839,30.80246913580247,0)" xlink:href="#U"/></g><path d="M100-194c62-1 85 37 85 99 1 63-27 99-86 99S16-35 15-95c0-66 28-99 85-99zM99-20c44 1 53-31 53-75 0-43-8-75-51-75s-53 32-53 75 10 74 51 75" id="V"/><path d="M117-194c89-4 53 116 60 194h-32v-121c0-31-8-49-39-48C34-167 62-67 57 0H25l-1-190h30c1 10-1 24 2 32 11-22 29-35 61-36" id="W"/><path d="M59-47c-2 24 18 29 38 22v24C64 9 27 4 27-40v-127H5v-23h24l9-43h21v43h35v23H59v120" id="X"/><path d="M114-163C36-179 61-72 57 0H25l-1-190h30c1 12-1 29 2 39 6-27 23-49 58-41v29" id="Y"/><path d="M141-36C126-15 110 5 73 4 37 3 15-17 15-53c-1-64 63-63 125-63 3-35-9-54-41-54-24 1-41 7-42 31l-33-3c5-37 33-52 76-52 45 0 72 20 72 64v82c-1 20 7 32 28 27v20c-31 9-61-2-59-35zM48-53c0 20 12 33 32 33 41-3 63-29 60-74-43 2-92-5-92 41" id="Z"/><path d="M96-169c-40 0-48 33-48 73s9 75 48 75c24 0 41-14 43-38l32 2c-6 37-31 61-74 61-59 0-76-41-82-99-10-93 101-131 147-64 4 7 5 14 7 22l-32 3c-4-21-16-35-41-35" id="aa"/><path d="M135-143c-3-34-86-38-87 0 15 53 115 12 119 90S17 21 10-45l28-5c4 36 97 45 98 0-10-56-113-15-118-90-4-57 82-63 122-42 12 7 21 19 24 35" id="ab"/><g id="c"><use transform="matrix(0.03703703703703704,0,0,0.03703703703703704,0,0)" xlink:href="#S"/><use transform="matrix(0.03703703703703704,0,0,0.03703703703703704,9.592592592592593,0)" xlink:href="#V"/><use transform="matrix(0.03703703703703704,0,0,0.03703703703703704,17,0)" xlink:href="#W"/><use transform="matrix(0.03703703703703704,0,0,0.03703703703703704,24.407407407407405,0)" xlink:href="#X"/><use transform="matrix(0.03703703703703704,0,0,0.03703703703703704,28.111111111111114,0)" xlink:href="#Y"/><use transform="matrix(0.03703703703703704,0,0,0.03703703703703704,32.51851851851852,0)" xlink:href="#Z"/><use transform="matrix(0.03703703703703704,0,0,0.03703703703703704,39.925925925925924,0)" xlink:href="#aa"/><use transform="matrix(0.03703703703703704,0,0,0.03703703703703704,46.592592592592595,0)" xlink:href="#X"/><use transform="matrix(0.03703703703703704,0,0,0.03703703703703704,50.2962962962963,0)" xlink:href="#ab"/></g><path d="M101-234c-31-9-42 10-38 44h38v23H63V0H32v-167H5v-23h27c-7-52 17-82 69-68v24" id="ac"/><g id="d"><use transform="matrix(0.03703703703703704,0,0,0.03703703703703704,0,0)" xlink:href="#ac"/><use transform="matrix(0.03703703703703704,0,0,0.03703703703703704,3.703703703703704,0)" xlink:href="#V"/><use transform="matrix(0.03703703703703704,0,0,0.03703703703703704,11.111111111111112,0)" xlink:href="#Y"/></g><path d="M24 0v-261h32V0H24" id="ad"/><path d="M115-194c53 0 69 39 70 98 0 66-23 100-70 100C84 3 66-7 56-30L54 0H23l1-261h32v101c10-23 28-34 59-34zm-8 174c40 0 45-34 45-75 0-40-5-75-45-74-42 0-51 32-51 76 0 43 10 73 51 73" id="ae"/><path d="M84 4C-5 8 30-112 23-190h32v120c0 31 7 50 39 49 72-2 45-101 50-169h31l1 190h-30c-1-10 1-25-2-33-11 22-28 36-60 37" id="af"/><path d="M16-82v-28h88v28H16" id="ag"/><path d="M106-169C34-169 62-67 57 0H25v-261h32l-1 103c12-21 28-36 61-36 89 0 53 116 60 194h-32v-121c2-32-8-49-39-48" id="ah"/><g id="e"><use transform="matrix(0.03703703703703704,0,0,0.03703703703703704,0,0)" xlink:href="#ad"/><use transform="matrix(0.03703703703703704,0,0,0.03703703703703704,2.9259259259259265,0)" xlink:href="#Z"/><use transform="matrix(0.03703703703703704,0,0,0.03703703703703704,10.333333333333334,0)" xlink:href="#ae"/><use transform="matrix(0.03703703703703704,0,0,0.03703703703703704,17.740740740740744,0)" xlink:href="#V"/><use transform="matrix(0.03703703703703704,0,0,0.03703703703703704,25.148148148148152,0)" xlink:href="#af"/><use transform="matrix(0.03703703703703704,0,0,0.03703703703703704,32.55555555555556,0)" xlink:href="#Y"/><use transform="matrix(0.03703703703703704,0,0,0.03703703703703704,36.96296296296296,0)" xlink:href="#ag"/><use transform="matrix(0.03703703703703704,0,0,0.03703703703703704,41.37037037037037,0)" xlink:href="#ah"/><use transform="matrix(0.03703703703703704,0,0,0.03703703703703704,48.777777777777764,0)" xlink:href="#V"/><use transform="matrix(0.03703703703703704,0,0,0.03703703703703704,56.185185185185176,0)" xlink:href="#af"/><use transform="matrix(0.03703703703703704,0,0,0.03703703703703704,63.59259259259258,0)" xlink:href="#Y"/><use transform="matrix(0.03703703703703704,0,0,0.03703703703703704,67.99999999999999,0)" xlink:href="#ab"/></g><g id="f"><use transform="matrix(0.05,0,0,0.05,0,0)" xlink:href="#S"/><use transform="matrix(0.05,0,0,0.05,12.950000000000001,0)" xlink:href="#V"/><use transform="matrix(0.05,0,0,0.05,22.950000000000003,0)" xlink:href="#W"/><use transform="matrix(0.05,0,0,0.05,32.95,0)" xlink:href="#X"/><use transform="matrix(0.05,0,0,0.05,37.95,0)" xlink:href="#Y"/><use transform="matrix(0.05,0,0,0.05,43.900000000000006,0)" xlink:href="#Z"/><use transform="matrix(0.05,0,0,0.05,53.900000000000006,0)" xlink:href="#aa"/><use transform="matrix(0.05,0,0,0.05,62.900000000000006,0)" xlink:href="#X"/></g><path d="M240 0l2-218c-23 76-54 145-80 218h-23L58-218 59 0H30v-248h44l77 211c21-75 51-140 76-211h43V0h-30" id="ai"/><path d="M24-231v-30h32v30H24zM24 0v-190h32V0H24" id="aj"/><path d="M100-194c63 0 86 42 84 106H49c0 40 14 67 53 68 26 1 43-12 49-29l28 8c-11 28-37 45-77 45C44 4 14-33 15-96c1-61 26-98 85-98zm52 81c6-60-76-77-97-28-3 7-6 17-6 28h103" id="ak"/><path d="M85-194c31 0 48 13 60 33l-1-100h32l1 261h-30c-2-10 0-23-3-31C134-8 116 4 85 4 32 4 16-35 15-94c0-66 23-100 70-100zm9 24c-40 0-46 34-46 75 0 40 6 74 45 74 42 0 51-32 51-76 0-42-9-74-50-73" id="al"/><g id="g"><use transform="matrix(0.05,0,0,0.05,0,0)" xlink:href="#ai"/><use transform="matrix(0.05,0,0,0.05,14.950000000000001,0)" xlink:href="#aj"/><use transform="matrix(0.05,0,0,0.05,18.900000000000002,0)" xlink:href="#W"/><use transform="matrix(0.05,0,0,0.05,28.900000000000002,0)" xlink:href="#X"/><use transform="matrix(0.05,0,0,0.05,33.900000000000006,0)" xlink:href="#ak"/><use transform="matrix(0.05,0,0,0.05,43.900000000000006,0)" xlink:href="#al"/></g><path d="M233-177c-1 41-23 64-60 70L243 0h-38l-65-103H63V0H30v-248c88 3 205-21 203 71zM63-129c60-2 137 13 137-47 0-61-80-42-137-45v92" id="am"/><path d="M210-169c-67 3-38 105-44 169h-31v-121c0-29-5-50-35-48C34-165 62-65 56 0H25l-1-190h30c1 10-1 24 2 32 10-44 99-50 107 0 11-21 27-35 58-36 85-2 47 119 55 194h-31v-121c0-29-5-49-35-48" id="an"/><g id="h"><use transform="matrix(0.05,0,0,0.05,0,0)" xlink:href="#am"/><use transform="matrix(0.05,0,0,0.05,12.950000000000001,0)" xlink:href="#ak"/><use transform="matrix(0.05,0,0,0.05,22.950000000000003,0)" xlink:href="#al"/><use transform="matrix(0.05,0,0,0.05,32.95,0)" xlink:href="#ak"/><use transform="matrix(0.05,0,0,0.05,42.95,0)" xlink:href="#ak"/><use transform="matrix(0.05,0,0,0.05,52.95,0)" xlink:href="#an"/><use transform="matrix(0.05,0,0,0.05,67.9,0)" xlink:href="#ak"/><use transform="matrix(0.05,0,0,0.05,77.9,0)" xlink:href="#al"/></g><path d="M30 0v-248h33v221h125V0H30" id="ao"/><path d="M197 0v-115H63V0H30v-248h33v105h134v-105h34V0h-34" id="ap"/><path d="M127-220V0H93v-220H8v-28h204v28h-85" id="aq"/><g id="i"><use transform="matrix(0.05,0,0,0.05,0,0)" xlink:href="#ao"/><use transform="matrix(0.05,0,0,0.05,10,0)" xlink:href="#ap"/><use transform="matrix(0.05,0,0,0.05,22.950000000000003,0)" xlink:href="#aq"/></g><g id="j"><use transform="matrix(0.05,0,0,0.05,0,0)" xlink:href="#ap"/><use transform="matrix(0.05,0,0,0.05,12.950000000000001,0)" xlink:href="#V"/><use transform="matrix(0.05,0,0,0.05,22.950000000000003,0)" xlink:href="#ad"/><use transform="matrix(0.05,0,0,0.05,26.900000000000002,0)" xlink:href="#al"/><use transform="matrix(0.05,0,0,0.05,36.900000000000006,0)" xlink:href="#ak"/><use transform="matrix(0.05,0,0,0.05,46.900000000000006,0)" xlink:href="#Y"/></g><path d="M266 0h-40l-56-210L115 0H75L2-248h35L96-30l15-64 43-154h32l59 218 59-218h35" id="ar"/><path d="M143 0L79-87 56-68V0H24v-261h32v163l83-92h37l-77 82L181 0h-38" id="as"/><g id="k"><use transform="matrix(0.05,0,0,0.05,0,0)" xlink:href="#ar"/><use transform="matrix(0.05,0,0,0.05,16.599999999999998,0)" xlink:href="#V"/><use transform="matrix(0.05,0,0,0.05,26.599999999999994,0)" xlink:href="#Y"/><use transform="matrix(0.05,0,0,0.05,32.55,0)" xlink:href="#as"/></g><g id="l"><use transform="matrix(0.05,0,0,0.05,0,0)" xlink:href="#ac"/><use transform="matrix(0.05,0,0,0.05,5,0)" xlink:href="#V"/><use transform="matrix(0.05,0,0,0.05,15,0)" xlink:href="#Y"/></g><path d="M194-70c0 46-34 64-81 66v29H91V-4C42-5 12-27 4-67l30-6c5 28 25 41 57 43v-87c-38-9-76-20-76-67 1-42 33-58 76-59v-23h22v23c45 0 67 20 76 56l-31 6c-5-23-18-35-45-37v78c41 10 81 20 81 70zm-81 41c51 7 71-66 19-77-6-2-12-4-19-6v83zM91-219c-47-6-63 57-18 69 6 2 12 3 18 5v-74" id="at"/><g id="m"><use transform="matrix(0.05,0,0,0.05,0,0)" xlink:href="#at"/><use transform="matrix(0.05,0,0,0.05,10,0)" xlink:href="#at"/></g><path d="M205 0l-28-72H64L36 0H1l101-248h38L239 0h-34zm-38-99l-47-123c-12 45-31 82-46 123h93" id="au"/><g id="n"><use transform="matrix(0.05,0,0,0.05,0,0)" xlink:href="#au"/><use transform="matrix(0.05,0,0,0.05,12,0)" xlink:href="#ad"/><use transform="matrix(0.05,0,0,0.05,15.949999999999998,0)" xlink:href="#ad"/><use transform="matrix(0.05,0,0,0.05,19.9,0)" xlink:href="#V"/><use transform="matrix(0.05,0,0,0.05,29.899999999999995,0)" xlink:href="#aa"/><use transform="matrix(0.05,0,0,0.05,38.9,0)" xlink:href="#Z"/><use transform="matrix(0.05,0,0,0.05,48.9,0)" xlink:href="#X"/><use transform="matrix(0.05,0,0,0.05,53.900000000000006,0)" xlink:href="#ak"/><use transform="matrix(0.05,0,0,0.05,63.900000000000006,0)" xlink:href="#al"/></g><g id="o"><use transform="matrix(0.05,0,0,0.05,0,0)" xlink:href="#ao"/><use transform="matrix(0.05,0,0,0.05,10,0)" xlink:href="#ap"/><use transform="matrix(0.05,0,0,0.05,22.950000000000003,0)" xlink:href="#aq"/></g><g id="p"><use transform="matrix(0.05,0,0,0.05,0,0)" xlink:href="#aj"/><use transform="matrix(0.05,0,0,0.05,3.95,0)" xlink:href="#ab"/><use transform="matrix(0.05,0,0,0.05,12.949999999999998,0)" xlink:href="#ab"/><use transform="matrix(0.05,0,0,0.05,21.95,0)" xlink:href="#af"/><use transform="matrix(0.05,0,0,0.05,31.950000000000003,0)" xlink:href="#Z"/><use transform="matrix(0.05,0,0,0.05,41.95,0)" xlink:href="#W"/><use transform="matrix(0.05,0,0,0.05,51.95,0)" xlink:href="#aa"/><use transform="matrix(0.05,0,0,0.05,60.95,0)" xlink:href="#ak"/></g><g id="q"><use transform="matrix(0.05,0,0,0.05,0,0)" xlink:href="#ac"/><use transform="matrix(0.05,0,0,0.05,5,0)" xlink:href="#ak"/><use transform="matrix(0.05,0,0,0.05,15,0)" xlink:href="#ak"/><use transform="matrix(0.05,0,0,0.05,25,0)" xlink:href="#ab"/></g><path d="M185-189c-5-48-123-54-124 2 14 75 158 14 163 119 3 78-121 87-175 55-17-10-28-26-33-46l33-7c5 56 141 63 141-1 0-78-155-14-162-118-5-82 145-84 179-34 5 7 8 16 11 25" id="av"/><path d="M179-190L93 31C79 59 56 82 12 73V49c39 6 53-20 64-50L1-190h34L92-34l54-156h33" id="aw"/><g id="r"><use transform="matrix(0.05,0,0,0.05,0,0)" xlink:href="#av"/><use transform="matrix(0.05,0,0,0.05,12,0)" xlink:href="#ak"/><use transform="matrix(0.05,0,0,0.05,22,0)" xlink:href="#aa"/><use transform="matrix(0.05,0,0,0.05,31,0)" xlink:href="#af"/><use transform="matrix(0.05,0,0,0.05,41,0)" xlink:href="#Y"/><use transform="matrix(0.05,0,0,0.05,46.95,0)" xlink:href="#aj"/><use transform="matrix(0.05,0,0,0.05,50.900000000000006,0)" xlink:href="#X"/><use transform="matrix(0.05,0,0,0.05,55.900000000000006,0)" xlink:href="#aw"/></g><path d="M143 4C61 4 22-44 18-125c-5-107 100-154 193-111 17 8 29 25 37 43l-32 9c-13-25-37-40-76-40-61 0-88 39-88 99 0 61 29 100 91 101 35 0 62-11 79-27v-45h-74v-28h105v86C228-13 192 4 143 4" id="ax"/><g id="s"><use transform="matrix(0.05,0,0,0.05,0,0)" xlink:href="#ax"/><use transform="matrix(0.05,0,0,0.05,14,0)" xlink:href="#af"/><use transform="matrix(0.05,0,0,0.05,24,0)" xlink:href="#Z"/><use transform="matrix(0.05,0,0,0.05,34,0)" xlink:href="#Y"/><use transform="matrix(0.05,0,0,0.05,39.95,0)" xlink:href="#Z"/><use transform="matrix(0.05,0,0,0.05,49.95,0)" xlink:href="#W"/><use transform="matrix(0.05,0,0,0.05,59.95,0)" xlink:href="#X"/><use transform="matrix(0.05,0,0,0.05,64.95,0)" xlink:href="#ak"/><use transform="matrix(0.05,0,0,0.05,74.95,0)" xlink:href="#ak"/></g><path d="M63-220v92h138v28H63V0H30v-248h175v28H63" id="ay"/><g id="t"><use transform="matrix(0.05,0,0,0.05,0,0)" xlink:href="#ay"/><use transform="matrix(0.05,0,0,0.05,10.950000000000001,0)" xlink:href="#af"/><use transform="matrix(0.05,0,0,0.05,20.950000000000003,0)" xlink:href="#W"/><use transform="matrix(0.05,0,0,0.05,30.950000000000003,0)" xlink:href="#al"/></g><path d="M145-31C134-9 116 4 85 4 32 4 16-35 15-94c0-59 17-99 70-100 32-1 48 14 60 33 0-11-1-24 2-32h30l-1 268h-32zM93-21c41 0 51-33 51-76s-8-73-50-73c-40 0-46 35-46 75s5 74 45 74" id="az"/><g id="u"><use transform="matrix(0.05,0,0,0.05,0,0)" xlink:href="#ao"/><use transform="matrix(0.05,0,0,0.05,10,0)" xlink:href="#aj"/><use transform="matrix(0.05,0,0,0.05,13.949999999999998,0)" xlink:href="#az"/><use transform="matrix(0.05,0,0,0.05,23.95,0)" xlink:href="#af"/><use transform="matrix(0.05,0,0,0.05,33.95,0)" xlink:href="#aj"/><use transform="matrix(0.05,0,0,0.05,37.900000000000006,0)" xlink:href="#al"/><use transform="matrix(0.05,0,0,0.05,47.900000000000006,0)" xlink:href="#aj"/><use transform="matrix(0.05,0,0,0.05,51.85,0)" xlink:href="#X"/><use transform="matrix(0.05,0,0,0.05,56.85,0)" xlink:href="#aw"/></g><path d="M108 0H70L1-190h34L89-25l56-165h34" id="aA"/><g id="v"><use transform="matrix(0.05,0,0,0.05,0,0)" xlink:href="#am"/><use transform="matrix(0.05,0,0,0.05,12.950000000000001,0)" xlink:href="#ak"/><use transform="matrix(0.05,0,0,0.05,22.950000000000003,0)" xlink:href="#ab"/><use transform="matrix(0.05,0,0,0.05,31.950000000000003,0)" xlink:href="#ak"/><use transform="matrix(0.05,0,0,0.05,41.95,0)" xlink:href="#Y"/><use transform="matrix(0.05,0,0,0.05,47.900000000000006,0)" xlink:href="#aA"/><use transform="matrix(0.05,0,0,0.05,56.900000000000006,0)" xlink:href="#ak"/></g><path d="M30-248c118-7 216 8 213 122C240-48 200 0 122 0H30v-248zM63-27c89 8 146-16 146-99s-60-101-146-95v194" id="aB"/><path d="M115-194c55 1 70 41 70 98S169 2 115 4C84 4 66-9 55-30l1 105H24l-1-265h31l2 30c10-21 28-34 59-34zm-8 174c40 0 45-34 45-75s-6-73-45-74c-42 0-51 32-51 76 0 43 10 73 51 73" id="aC"/><g id="w"><use transform="matrix(0.05,0,0,0.05,0,0)" xlink:href="#aB"/><use transform="matrix(0.05,0,0,0.05,12.950000000000001,0)" xlink:href="#ak"/><use transform="matrix(0.05,0,0,0.05,22.950000000000003,0)" xlink:href="#aC"/><use transform="matrix(0.05,0,0,0.05,32.95,0)" xlink:href="#V"/><use transform="matrix(0.05,0,0,0.05,42.95,0)" xlink:href="#ab"/><use transform="matrix(0.05,0,0,0.05,51.95,0)" xlink:href="#aj"/><use transform="matrix(0.05,0,0,0.05,55.900000000000006,0)" xlink:href="#X"/></g><path d="M140-251c81 0 123 46 123 126C263-46 219 4 140 4 59 4 17-45 17-125s42-126 123-126zm0 227c63 0 89-41 89-101s-29-99-89-99c-61 0-89 39-89 99S79-25 140-24" id="aD"/><g id="x"><use transform="matrix(0.06172839506172839,0,0,0.06172839506172839,0,0)" xlink:href="#ao"/><use transform="matrix(0.06172839506172839,0,0,0.06172839506172839,12.345679012345679,0)" xlink:href="#aD"/><use transform="matrix(0.06172839506172839,0,0,0.06172839506172839,29.629629629629626,0)" xlink:href="#S"/></g><g id="y"><use transform="matrix(0.05,0,0,0.05,0,0)" xlink:href="#at"/><use transform="matrix(0.05,0,0,0.05,10,0)" xlink:href="#at"/><use transform="matrix(0.05,0,0,0.05,20,0)" xlink:href="#at"/></g><g id="A"><use transform="matrix(0.05,0,0,0.05,0,0)" xlink:href="#ao"/><use transform="matrix(0.05,0,0,0.05,10,0)" xlink:href="#ap"/><use transform="matrix(0.05,0,0,0.05,22.950000000000003,0)" xlink:href="#aq"/></g><path d="M141 0L90-78 38 0H4l68-98-65-92h35l48 74 47-74h35l-64 92 68 98h-35" id="aE"/><path d="M177-190C167-65 218 103 67 71c-23-6-38-20-44-43l32-5c15 47 100 32 89-28v-30C133-14 115 1 83 1 29 1 15-40 15-95c0-56 16-97 71-98 29-1 48 16 59 35 1-10 0-23 2-32h30zM94-22c36 0 50-32 50-73 0-42-14-75-50-75-39 0-46 34-46 75s6 73 46 73" id="aF"/><g id="B"><use transform="matrix(0.04938271604938272,0,0,0.04938271604938272,0,0)" xlink:href="#U"/><use transform="matrix(0.04938271604938272,0,0,0.04938271604938272,11.851851851851853,0)" xlink:href="#aE"/><use transform="matrix(0.04938271604938272,0,0,0.04938271604938272,20.74074074074074,0)" xlink:href="#aa"/><use transform="matrix(0.04938271604938272,0,0,0.04938271604938272,29.629629629629633,0)" xlink:href="#ah"/><use transform="matrix(0.04938271604938272,0,0,0.04938271604938272,39.50617283950618,0)" xlink:href="#Z"/><use transform="matrix(0.04938271604938272,0,0,0.04938271604938272,49.38271604938272,0)" xlink:href="#W"/><use transform="matrix(0.04938271604938272,0,0,0.04938271604938272,59.25925925925927,0)" xlink:href="#aF"/><use transform="matrix(0.04938271604938272,0,0,0.04938271604938272,69.13580246913581,0)" xlink:href="#ak"/></g><path d="M287-57c-19 10-34 24-48 39h-13c7-13 13-24 21-34H113c8 9 14 21 21 34h-13c-14-15-29-29-48-39v-6c20-9 34-24 48-39h13c-7 13-13 25-21 35h134c-8-10-14-22-21-35h13c14 15 28 30 48 39v6" id="aG"/><g id="C"><use transform="matrix(0.04938271604938272,0,0,0.04938271604938272,0,0)" xlink:href="#ao"/><use transform="matrix(0.04938271604938272,0,0,0.04938271604938272,9.876543209876544,0)" xlink:href="#ap"/><use transform="matrix(0.04938271604938272,0,0,0.04938271604938272,22.66666666666667,0)" xlink:href="#aq"/><use transform="matrix(0.06790123456790123,0,0,0.06790123456790123,33.48148148148149,0)" xlink:href="#aG"/><use transform="matrix(0.04938271604938272,0,0,0.04938271604938272,57.92592592592593,0)" xlink:href="#at"/></g><g id="D"><use transform="matrix(0.05,0,0,0.05,0,0)" xlink:href="#aq"/><use transform="matrix(0.05,0,0,0.05,10.3,0)" xlink:href="#Y"/><use transform="matrix(0.05,0,0,0.05,16.25,0)" xlink:href="#Z"/><use transform="matrix(0.05,0,0,0.05,26.25,0)" xlink:href="#al"/><use transform="matrix(0.05,0,0,0.05,36.25,0)" xlink:href="#ak"/></g><path d="M33 0v-248h34V0H33" id="aH"/><g id="E"><use transform="matrix(0.05,0,0,0.05,0,0)" xlink:href="#aq"/><use transform="matrix(0.05,0,0,0.05,10.950000000000001,0)" xlink:href="#aH"/><use transform="matrix(0.05,0,0,0.05,15.950000000000001,0)" xlink:href="#ai"/><use transform="matrix(0.05,0,0,0.05,30.900000000000002,0)" xlink:href="#U"/></g><g id="F"><use transform="matrix(0.05,0,0,0.05,0,0)" xlink:href="#ar"/><use transform="matrix(0.05,0,0,0.05,16.599999999999998,0)" xlink:href="#V"/><use transform="matrix(0.05,0,0,0.05,26.599999999999994,0)" xlink:href="#Y"/><use transform="matrix(0.05,0,0,0.05,32.55,0)" xlink:href="#as"/><use transform="matrix(0.05,0,0,0.05,41.55,0)" xlink:href="#ak"/><use transform="matrix(0.05,0,0,0.05,51.54999999999999,0)" xlink:href="#Y"/></g><g id="G"><use transform="matrix(0.05,0,0,0.05,0,0)" xlink:href="#aq"/><use transform="matrix(0.05,0,0,0.05,10.950000000000001,0)" xlink:href="#aH"/><use transform="matrix(0.05,0,0,0.05,15.950000000000001,0)" xlink:href="#ai"/><use transform="matrix(0.05,0,0,0.05,30.900000000000002,0)" xlink:href="#U"/></g><g id="H"><use transform="matrix(0.04938271604938272,0,0,0.04938271604938272,0,0)" xlink:href="#aq"/><use transform="matrix(0.04938271604938272,0,0,0.04938271604938272,10.814814814814815,0)" xlink:href="#aH"/><use transform="matrix(0.04938271604938272,0,0,0.04938271604938272,15.753086419753087,0)" xlink:href="#ai"/><use transform="matrix(0.04938271604938272,0,0,0.04938271604938272,30.518518518518523,0)" xlink:href="#U"/><use transform="matrix(0.06790123456790123,0,0,0.06790123456790123,42.370370370370374,0)" xlink:href="#aG"/><use transform="matrix(0.04938271604938272,0,0,0.04938271604938272,66.81481481481481,0)" xlink:href="#at"/></g><g id="I"><use transform="matrix(0.05,0,0,0.05,0,0)" xlink:href="#ao"/><use transform="matrix(0.05,0,0,0.05,10,0)" xlink:href="#ap"/><use transform="matrix(0.05,0,0,0.05,22.950000000000003,0)" xlink:href="#aq"/></g><g id="J"><use transform="matrix(0.05,0,0,0.05,0,0)" xlink:href="#aj"/><use transform="matrix(0.05,0,0,0.05,3.95,0)" xlink:href="#ab"/></g><g id="K"><use transform="matrix(0.05,0,0,0.05,0,0)" xlink:href="#Y"/><use transform="matrix(0.05,0,0,0.05,5.95,0)" xlink:href="#ak"/><use transform="matrix(0.05,0,0,0.05,15.949999999999998,0)" xlink:href="#al"/><use transform="matrix(0.05,0,0,0.05,25.950000000000003,0)" xlink:href="#ak"/><use transform="matrix(0.05,0,0,0.05,35.95,0)" xlink:href="#ak"/><use transform="matrix(0.05,0,0,0.05,45.95,0)" xlink:href="#an"/><use transform="matrix(0.05,0,0,0.05,60.900000000000006,0)" xlink:href="#ak"/><use transform="matrix(0.05,0,0,0.05,70.9,0)" xlink:href="#al"/></g><g id="L"><use transform="matrix(0.05,0,0,0.05,0,0)" xlink:href="#ac"/><use transform="matrix(0.05,0,0,0.05,5,0)" xlink:href="#V"/><use transform="matrix(0.05,0,0,0.05,15,0)" xlink:href="#Y"/></g><g id="M"><use transform="matrix(0.05,0,0,0.05,0,0)" xlink:href="#ad"/><use transform="matrix(0.05,0,0,0.05,3.95,0)" xlink:href="#Z"/><use transform="matrix(0.05,0,0,0.05,13.949999999999998,0)" xlink:href="#ae"/><use transform="matrix(0.05,0,0,0.05,23.95,0)" xlink:href="#V"/><use transform="matrix(0.05,0,0,0.05,33.95,0)" xlink:href="#af"/><use transform="matrix(0.05,0,0,0.05,43.95,0)" xlink:href="#Y"/><use transform="matrix(0.05,0,0,0.05,49.900000000000006,0)" xlink:href="#ag"/><use transform="matrix(0.05,0,0,0.05,55.85,0)" xlink:href="#ah"/><use transform="matrix(0.05,0,0,0.05,65.85000000000001,0)" xlink:href="#V"/><use transform="matrix(0.05,0,0,0.05,75.85000000000001,0)" xlink:href="#af"/><use transform="matrix(0.05,0,0,0.05,85.85000000000001,0)" xlink:href="#Y"/><use transform="matrix(0.05,0,0,0.05,91.80000000000001,0)" xlink:href="#ab"/></g><g id="N"><use transform="matrix(0.05,0,0,0.05,0,0)" xlink:href="#aA"/><use transform="matrix(0.05,0,0,0.05,9,0)" xlink:href="#aj"/><use transform="matrix(0.05,0,0,0.05,12.949999999999998,0)" xlink:href="#Z"/></g><g id="O"><use transform="matrix(0.05,0,0,0.05,0,0)" xlink:href="#ao"/><use transform="matrix(0.05,0,0,0.05,10,0)" xlink:href="#aD"/><use transform="matrix(0.05,0,0,0.05,24,0)" xlink:href="#S"/></g><path d="M234-2c-28 10-62 0-77-18C117 19 8 12 13-65c3-43 29-61 60-76-25-40-17-114 47-108 35 3 59 15 59 50 0 44-40 53-71 69 14 26 32 50 51 72 14-21 24-43 30-72l26 8c-9 33-21 57-38 82 13 13 33 22 57 15v23zM97-151c25-10 52-18 56-48-1-18-13-29-33-29-42 0-39 50-23 77zM42-66c-3 51 71 58 98 28-20-24-41-51-56-80-23 10-40 24-42 52" id="aI"/><use transform="matrix(0.05,0,0,0.05,0,0)" xlink:href="#aI" id="P"/><path d="M33 0v-38h34V0H33" id="aJ"/><g id="Q"><use transform="matrix(0.05,0,0,0.05,0,0)" xlink:href="#S"/><use transform="matrix(0.05,0,0,0.05,12.950000000000001,0)" xlink:href="#T"/><use transform="matrix(0.05,0,0,0.05,24.950000000000003,0)" xlink:href="#U"/><use transform="matrix(0.05,0,0,0.05,36.95,0)" xlink:href="#aJ"/></g><g id="R"><use transform="matrix(0.05,0,0,0.05,0,0)" xlink:href="#X"/><use transform="matrix(0.05,0,0,0.05,5,0)" xlink:href="#Y"/><use transform="matrix(0.05,0,0,0.05,10.95,0)" xlink:href="#Z"/><use transform="matrix(0.05,0,0,0.05,20.95,0)" xlink:href="#W"/><use transform="matrix(0.05,0,0,0.05,30.950000000000003,0)" xlink:href="#ab"/><use transform="matrix(0.05,0,0,0.05,39.95,0)" xlink:href="#Z"/><use transform="matrix(0.05,0,0,0.05,49.95,0)" xlink:href="#aa"/><use transform="matrix(0.05,0,0,0.05,58.95,0)" xlink:href="#X"/><use transform="matrix(0.05,0,0,0.05,63.95,0)" xlink:href="#aj"/><use transform="matrix(0.05,0,0,0.05,67.9,0)" xlink:href="#V"/><use transform="matrix(0.05,0,0,0.05,77.9,0)" xlink:href="#W"/></g></defs></g></svg>