<?xml version="1.0" encoding="UTF-8" standalone="no"?>
<svg
   xmlns:dc="http://purl.org/dc/elements/1.1/"
   xmlns:cc="http://creativecommons.org/ns#"
   xmlns:rdf="http://www.w3.org/1999/02/22-rdf-syntax-ns#"
   xmlns:svg="http://www.w3.org/2000/svg"
   xmlns="http://www.w3.org/2000/svg"
   xmlns:xlink="http://www.w3.org/1999/xlink"
   xmlns:sodipodi="http://sodipodi.sourceforge.net/DTD/sodipodi-0.dtd"
   xmlns:inkscape="http://www.inkscape.org/namespaces/inkscape"
   width="621.03"
   height="391.73"
   id="svg2"
   version="1.1"
   inkscape:version="0.91 r13725"
   sodipodi:docname="Chronobank-TIME-payout-overview2.svg">
  <metadata
     id="metadata308">
    <rdf:RDF>
      <cc:Work
         rdf:about="">
        <dc:format>image/svg+xml</dc:format>
        <dc:type
           rdf:resource="http://purl.org/dc/dcmitype/StillImage" />
      </cc:Work>
    </rdf:RDF>
  </metadata>
  <defs
     id="defs306" />
  <sodipodi:namedview
     pagecolor="#ffffff"
     bordercolor="#666666"
     borderopacity="1"
     objecttolerance="10"
     gridtolerance="10"
     guidetolerance="10"
     inkscape:pageopacity="0"
     inkscape:pageshadow="2"
     inkscape:window-width="2556"
     inkscape:window-height="1397"
     id="namedview304"
     showgrid="false"
     inkscape:zoom="2.1126193"
     inkscape:cx="328.31641"
     inkscape:cy="140.86762"
     inkscape:window-x="704"
     inkscape:window-y="20"
     inkscape:window-maximized="0"
     inkscape:current-layer="svg2" />
  <g
     transform="translate(-403.2829268292684 -409.9536585365854)"
     id="g4">
    <path
       d="M989 627.37c0 22.1-17.9 40-40 40s-40-17.9-40-40 17.9-40 40-40 40 17.9 40 40z"
       stroke="#000"
       stroke-width="2"
       fill="#fff"
       id="path6" />
    <use
       xlink:href="#a"
       transform="matrix(1,0,0,1,914,592.3666666666667) translate(35 40.4)"
       id="use8" />
    <path
       d="M985 623.37c0 22.1-17.9 40-40 40s-40-17.9-40-40 17.9-40 40-40 40 17.9 40 40z"
       stroke="#000"
       stroke-width="2"
       fill="#fff"
       id="path10" />
    <use
       xlink:href="#a"
       transform="matrix(1,0,0,1,910,588.3666666666667) translate(35 40.4)"
       id="use12" />
    <path
       d="M981 618.87c0 22.1-17.9 40-40 40s-40-17.9-40-40 17.9-40 40-40 40 17.9 40 40z"
       stroke="#000"
       stroke-width="2"
       fill="#fff"
       id="path14" />
    <use
       xlink:href="#b"
       transform="matrix(1,0,0,1,906,583.8666666666667) translate(18.049999999999997 38.6)"
       id="use16" />
    <path
       d="M949 667.37l-.35 5.5-.53 5.05-.7 4.7-.83 4.36-.97 4.06-1.06 3.8-1.16 3.56-1.23 3.34-1.33 3.14-1.4 2.96-1.46 2.8-1.52 2.64-1.6 2.5-1.64 2.38-1.7 2.25-1.78 2.14-1.83 2.02-1.87 1.93-1.94 1.8-2.02 1.73-2.06 1.64-2.13 1.54-2.2 1.47-2.26 1.36-2.32 1.27-2.4 1.2-2.45 1.08-2.53 1-2.6.9-2.68.8-2.74.7-2.8.6-2.88.5-2.93.36-3 .25-3.03.1h-3.1l-3.1-.12-3.16-.27-3.16-.4-3.17-.53-3.17-.68-3.14-.82-3.12-.94-3.07-1.07-3.02-1.2-2.96-1.32-2.9-1.43-2.78-1.54-2.7-1.64-2.62-1.74-2.5-1.83-2.42-1.9-2.3-2-1.48-1.37-1.7-1.7-1.56-1.7-1.43-1.75-1.3-1.76-1.2-1.8-1.12-1.8-1-1.85-.92-1.88-.82-1.9-.73-1.97-.63-2-.55-2.05-.46-2.1-.36-2.17-.27-2.23-.16-2.3-.06-2.36.07-2.44.18-2.5.3-2.6.45-2.67.6-2.75.75-2.82.93-2.9 1.1-2.95 1.28-3 1.5-3.07 1.67-3.07 1.88-3.1 2.1-3.07 2.28-3.06 2.47-3 2.66-2.93 2.84-2.84 3-2.72 3.12-2.58 3.25-2.44 3.38-2.3 3.45-2.1 3.54-1.94 3.6-1.76 3.67-1.57 3.7-1.38 3.76-1.2 3.78-1.02 3.82-.84 3.85-.65 3.87-.46 3.9-.3 3.95-.1 3.98.1 3.45.23"
       stroke="#000"
       stroke-width="5"
       fill="none"
       id="path18" />
    <path
       d="M951.5 667.62l-2.56-.26h.06l2.52-.08zM901 618.87l-14.25 4.68-.03-9.27z"
       id="path20" />
    <path
       d="M901.16 616.3l-.16 2.57.1 2.6-16.84 5.53-.05-16.16zm-11.92 3.8l3.67-1.2-3.67-1.2z"
       id="path22" />
    <use
       xlink:href="#c"
       transform="matrix(1,0,0,1,832.709255063379,704.9350554996937) translate(0 14.4)"
       id="use24" />
    <path
       d="M484.13 602.1c0 5.58-4.52 10.1-10.1 10.1s-10.1-4.52-10.1-10.1 4.52-10.1 10.1-10.1 10.1 4.52 10.1 10.1z"
       stroke="#000"
       stroke-width="2"
       fill="#fff"
       id="path26" />
    <path
       d="M451.18 592h45.7v80.8h-45.7z"
       fill="none"
       id="path28" />
    <path
       d="M474.03 612.2v28.28l22.84 32.32m-22.84-32.32l-22.85 32.32m0-50.5h45.7"
       stroke="#000"
       stroke-width="2"
       fill="none"
       id="path30" />
    <use
       xlink:href="#d"
       transform="matrix(1,0,0,1,371.18292682926835,672.8041237113403) translate(54.099999999999994 14.6)"
       id="use32" />
    <use
       xlink:href="#e"
       transform="matrix(1,0,0,1,371.18292682926835,672.8041237113403) translate(102 14.6)"
       id="use34" />
    <path
       d="M602 592h148.18v103H602z"
       stroke="#000"
       stroke-width="2"
       fill="#fff"
       id="path36" />
    <use
       xlink:href="#f"
       transform="matrix(1,0,0,1,610,600) translate(40.01851851851852 21.27777777777778)"
       id="use38" />
    <use
       xlink:href="#g"
       transform="matrix(1,0,0,1,610,600) translate(27.086419753086417 47.94444444444444)"
       id="use40" />
    <use
       xlink:href="#h"
       transform="matrix(1,0,0,1,610,600) translate(27.024691358024697 74.61111111111111)"
       id="use42" />
    <path
       d="M579.08 581.67c0 14.88-12.07 26.95-26.95 26.95-14.88 0-26.94-12.07-26.94-26.95 0-14.88 12.05-26.94 26.93-26.94 14.88 0 26.95 12.06 26.95 26.94z"
       stroke="#000"
       stroke-width="2"
       fill="#fff"
       id="path44" />
    <use
       xlink:href="#a"
       transform="matrix(1,0,0,1,530.1851718840278,559.7260845839018) translate(22 27.4)"
       id="use46" />
    <path
       d="M576.38 578.98c0 14.88-12.06 26.94-26.94 26.94-14.9 0-26.95-12.06-26.95-26.94s12.05-26.95 26.94-26.95c14.88 0 26.94 12.07 26.94 26.95z"
       stroke="#000"
       stroke-width="2"
       fill="#fff"
       id="path48" />
    <use
       xlink:href="#a"
       transform="matrix(1,0,0,1,527.4905438445446,557.0314565444186) translate(22 27.4)"
       id="use50" />
    <path
       d="M573.7 575.95c0 14.88-12.08 26.94-26.96 26.94s-26.94-12.07-26.94-26.95c0-14.9 12.06-26.95 26.94-26.95s26.95 12.06 26.95 26.95z"
       stroke="#000"
       stroke-width="2"
       fill="#fff"
       id="path52" />
    <use
       xlink:href="#i"
       transform="matrix(1,0,0,1,524.7959158050614,554) translate(0.5499999999999972 25.6)"
       id="use54" />
    <path
       d="M634.4 696l-.03 1.6-.1 1.52-.16 1.5-.2 1.46-.27 1.42-.33 1.4-.4 1.37-.43 1.36-.5 1.34-.55 1.33-.62 1.3-.7 1.33-.75 1.3-.83 1.32-.9 1.3-1.02 1.33-1.1 1.33-1.2 1.35-1.32 1.35-1.45 1.36-1.6 1.37-1.74 1.4-1.94 1.4-2.13 1.4-2.35 1.43-2.6 1.42-2.87 1.43-3.16 1.42-3.5 1.38-3.87 1.35-4.24 1.28-4.64 1.2-5.04 1.05-5.4.92-5.76.72-6.02.5-6.2.27h-6.3l-6.26-.28-6.1-.5-5.88-.75-5.56-.94-5.2-1.1-4.8-1.23-4.4-1.33-4.02-1.4-3.65-1.44-3.3-1.47-2.98-1.5-2.7-1.47-2.45-1.5-2.2-1.46-2-1.46-1.83-1.43-1.64-1.43-1.5-1.4-1.36-1.4-1.24-1.37-1.13-1.36-1.03-1.37-.94-1.35-.85-1.34-.77-1.34-.7-1.34-.64-1.34-.56-1.35-.5-1.36-.46-1.36-.38-1.4-.33-1.4-.27-1.44-.2-1.47-.17-1.5-.1-1.54-.03-1.6"
       stroke="#000"
       stroke-width="2"
       fill="none"
       id="path56" />
    <path
       d="M635.38 696.2l-1.96-.4.17-.8h2.04zM481.52 707.8l-9.07 1.92 1.58-14.92z"
       id="path58" />
    <path
       d="M483.07 708.5l-11.76 2.48 2.06-19.34zm-9.48-.04l6.37-1.35-5.27-9.13z"
       id="path60" />
    <use
       xlink:href="#j"
       transform="matrix(1,0,0,1,516.597200800419,747.4860809291243) translate(0.005000000000002558 14.4)"
       id="use62" />
    <use
       xlink:href="#k"
       transform="matrix(1,0,0,1,516.597200800419,747.4860809291243) translate(20.455 36)"
       id="use64" />
    <path
       d="M880.9 429.95h120.2v96.15H880.9z"
       stroke="#000"
       stroke-width="2"
       fill="#fff"
       id="path66" />
    <use
       xlink:href="#l"
       transform="matrix(1,0,0,1,888.9085365853658,437.9536585365854) translate(29.69135802469136 44.94444444444444)"
       id="use68" />
    <path
       d="M941 526.1l.53 26.4-.43 26.37"
       stroke="#000"
       stroke-width="8"
       fill="none"
       id="path70" />
    <path
       d="M937 526.18v-.08h4.02zM945.97 564.68l-4.87 14.2-4.4-14.35z"
       id="path72" />
    <path
       d="M951.54 560.77l-6.3 18.36-4.24-.26-2.87.1-1.14.15-5.74-18.67z"
       id="path74" />
    <use
       xlink:href="#m"
       transform="matrix(1,0,0,1,949.4130409108884,535.9023703749821) translate(0 14.4)"
       id="use76" />
    <path
       d="M941 526.1l-.02 2.03-.1 2-.2 2-.26 1.96-.35 1.95-.44 1.97-.53 1.96-.62 1.98-.7 2-.84 2.02-.93 2.05-1.05 2.08-1.2 2.13-1.35 2.18-1.5 2.24-1.7 2.3-1.93 2.36-2.16 2.45-2.42 2.54-2.75 2.62-3.1 2.74-3.53 2.86-4 2.98-4.58 3.1-5.22 3.24-5.96 3.36-6.82 3.48-7.77 3.56-8.83 3.6-9.97 3.6-11.1 3.48-12.2 3.26-13.05 2.93-13.6 2.46-13.74 1.9-13.37 1.27-12.63.67-11.56.13-7.72-.2"
       stroke="#000"
       stroke-width="2"
       fill="none"
       id="path78" />
    <path
       d="M942 526.25l-1-.15h1zM765.4 622.08l-14.22-4.75 14.3-4.53z"
       id="path80" />
    <path
       d="M766.4 623.46l-16.22-5.4v-1.46l16.3-5.16zm-11.98-6.1l10 3.33.05-6.53z"
       id="path82" />
    <path
       d="M496.87 643.4H601"
       stroke="#000"
       stroke-width="2"
       fill="none"
       id="path84" />
    <path
       d="M511.14 648.04l-14.27-4.64 14.27-4.63z"
       fill="#fff"
       id="path86" />
    <path
       d="M512.14 649.4l-15.27-4.95v-2.1l15.27-4.96zm-12.03-6l10.04 3.26v-6.52z"
       id="path88" />
    <path
       d="M601 643.4l-14.27 4.64v-9.27z"
       fill="#fff"
       id="path90" />
    <path
       d="M602 642.68v1.45l-16.27 5.28v-12zm-14.27 3.98l10.03-3.26-10.03-3.26z"
       id="path92" />
    <use
       xlink:href="#n"
       transform="matrix(1,0,0,1,518.4872147112421,617.8020618556702) translate(0 14.4)"
       id="use94" />
    <use
       xlink:href="#o"
       transform="matrix(1,0,0,1,511.53721471124254,647.4020618556702) translate(0 14.4)"
       id="use96" />
    <path
       d="M953.6 668.05l-.35 5.54-.55 5.13-.7 4.8-.86 4.48-1 4.2-1.1 3.94-1.2 3.7-1.3 3.5-1.4 3.3-1.46 3.12-1.55 2.96-1.62 2.8-1.7 2.68-1.75 2.53-1.84 2.4-1.9 2.3-1.96 2.2-2.04 2.07-2.1 1.98-2.18 1.87-2.25 1.78-2.3 1.68-2.4 1.6-2.47 1.5-2.54 1.38-2.6 1.3-2.7 1.2-2.76 1.08-2.84 1-2.9.86-2.98.76-3.05.65-3.1.52-3.16.4-3.2.27-3.27.13h-3.28l-3.3-.14-3.32-.27-3.3-.43-3.3-.56-3.28-.7-3.24-.83-3.18-.95-3.13-1.1-3.05-1.2-2.98-1.33-2.9-1.44-2.8-1.54-2.68-1.64-2.6-1.72-2.5-1.82-2.16-1.7-7.05-6.2-7.28-7.26-8.88-10.1-20.25-24.7-3.6-3.6-2.93-2.57-2.6-2-2.4-1.62-2.3-1.33-2.26-1.14-2.27-.96-2.33-.8-2.42-.7-2.55-.53-2.74-.4-3-.24-3.37-.06h-.12"
       stroke="#000"
       stroke-width="2"
       fill="none"
       id="path98" />
    <path
       d="M954.6 668.15l-2-.2.08-.8 2.04-.27zM764.64 674.66l-13.46-6.62 14.78-2.56z"
       id="path100" />
    <path
       d="M765.44 676.17l-15.26-7.5v-1.47l16.97-2.94zm-11.05-7.67l9.45 4.66.93-6.46z"
       id="path102" />
    <defs
       id="defs104">
      <path
         d="M30 0v-248h33v221h125V0H30"
         id="p" />
      <path
         d="M197 0v-115H63V0H30v-248h33v105h134v-105h34V0h-34"
         id="q" />
      <path
         d="M127-220V0H93v-220H8v-28h204v28h-85"
         id="r" />
      <g
         id="b">
        <use
           transform="matrix(0.05,0,0,0.05,0,0)"
           xlink:href="#p"
           id="use110" />
        <use
           transform="matrix(0.05,0,0,0.05,10,0)"
           xlink:href="#q"
           id="use112" />
        <use
           transform="matrix(0.05,0,0,0.05,22.950000000000003,0)"
           xlink:href="#r"
           id="use114" />
      </g>
      <path
         d="M114-163C36-179 61-72 57 0H25l-1-190h30c1 12-1 29 2 39 6-27 23-49 58-41v29"
         id="s" />
      <path
         d="M141-36C126-15 110 5 73 4 37 3 15-17 15-53c-1-64 63-63 125-63 3-35-9-54-41-54-24 1-41 7-42 31l-33-3c5-37 33-52 76-52 45 0 72 20 72 64v82c-1 20 7 32 28 27v20c-31 9-61-2-59-35zM48-53c0 20 12 33 32 33 41-3 63-29 60-74-43 2-92-5-92 41"
         id="t" />
      <path
         d="M117-194c89-4 53 116 60 194h-32v-121c0-31-8-49-39-48C34-167 62-67 57 0H25l-1-190h30c1 10-1 24 2 32 11-22 29-35 61-36"
         id="u" />
      <path
         d="M135-143c-3-34-86-38-87 0 15 53 115 12 119 90S17 21 10-45l28-5c4 36 97 45 98 0-10-56-113-15-118-90-4-57 82-63 122-42 12 7 21 19 24 35"
         id="v" />
      <path
         d="M96-169c-40 0-48 33-48 73s9 75 48 75c24 0 41-14 43-38l32 2c-6 37-31 61-74 61-59 0-76-41-82-99-10-93 101-131 147-64 4 7 5 14 7 22l-32 3c-4-21-16-35-41-35"
         id="w" />
      <path
         d="M59-47c-2 24 18 29 38 22v24C64 9 27 4 27-40v-127H5v-23h24l9-43h21v43h35v23H59v120"
         id="x" />
      <path
         d="M24-231v-30h32v30H24zM24 0v-190h32V0H24"
         id="y" />
      <path
         d="M100-194c62-1 85 37 85 99 1 63-27 99-86 99S16-35 15-95c0-66 28-99 85-99zM99-20c44 1 53-31 53-75 0-43-8-75-51-75s-53 32-53 75 10 74 51 75"
         id="z" />
      <g
         id="c">
        <use
           transform="matrix(0.05,0,0,0.05,0,0)"
           xlink:href="#r"
           id="use125" />
        <use
           transform="matrix(0.05,0,0,0.05,10.3,0)"
           xlink:href="#s"
           id="use127" />
        <use
           transform="matrix(0.05,0,0,0.05,16.25,0)"
           xlink:href="#t"
           id="use129" />
        <use
           transform="matrix(0.05,0,0,0.05,26.25,0)"
           xlink:href="#u"
           id="use131" />
        <use
           transform="matrix(0.05,0,0,0.05,36.25,0)"
           xlink:href="#v"
           id="use133" />
        <use
           transform="matrix(0.05,0,0,0.05,45.25,0)"
           xlink:href="#t"
           id="use135" />
        <use
           transform="matrix(0.05,0,0,0.05,55.25,0)"
           xlink:href="#w"
           id="use137" />
        <use
           transform="matrix(0.05,0,0,0.05,64.25,0)"
           xlink:href="#x"
           id="use139" />
        <use
           transform="matrix(0.05,0,0,0.05,69.25,0)"
           xlink:href="#y"
           id="use141" />
        <use
           transform="matrix(0.05,0,0,0.05,73.2,0)"
           xlink:href="#z"
           id="use143" />
        <use
           transform="matrix(0.05,0,0,0.05,83.2,0)"
           xlink:href="#u"
           id="use145" />
      </g>
      <path
         d="M33 0v-248h34V0H33"
         id="A" />
      <path
         d="M240 0l2-218c-23 76-54 145-80 218h-23L58-218 59 0H30v-248h44l77 211c21-75 51-140 76-211h43V0h-30"
         id="B" />
      <path
         d="M30 0v-248h187v28H63v79h144v27H63v87h162V0H30"
         id="C" />
      <g
         id="d">
        <use
           transform="matrix(0.05,0,0,0.05,0,0)"
           xlink:href="#r"
           id="use151" />
        <use
           transform="matrix(0.05,0,0,0.05,10.950000000000001,0)"
           xlink:href="#A"
           id="use153" />
        <use
           transform="matrix(0.05,0,0,0.05,15.950000000000001,0)"
           xlink:href="#B"
           id="use155" />
        <use
           transform="matrix(0.05,0,0,0.05,30.900000000000002,0)"
           xlink:href="#C"
           id="use157" />
      </g>
      <path
         d="M106-169C34-169 62-67 57 0H25v-261h32l-1 103c12-21 28-36 61-36 89 0 53 116 60 194h-32v-121c2-32-8-49-39-48"
         id="D" />
      <path
         d="M24 0v-261h32V0H24"
         id="E" />
      <path
         d="M85-194c31 0 48 13 60 33l-1-100h32l1 261h-30c-2-10 0-23-3-31C134-8 116 4 85 4 32 4 16-35 15-94c0-66 23-100 70-100zm9 24c-40 0-46 34-46 75 0 40 6 74 45 74 42 0 51-32 51-76 0-42-9-74-50-73"
         id="F" />
      <path
         d="M100-194c63 0 86 42 84 106H49c0 40 14 67 53 68 26 1 43-12 49-29l28 8c-11 28-37 45-77 45C44 4 14-33 15-96c1-61 26-98 85-98zm52 81c6-60-76-77-97-28-3 7-6 17-6 28h103"
         id="G" />
      <g
         id="e">
        <use
           transform="matrix(0.05,0,0,0.05,0,0)"
           xlink:href="#D"
           id="use164" />
        <use
           transform="matrix(0.05,0,0,0.05,10,0)"
           xlink:href="#z"
           id="use166" />
        <use
           transform="matrix(0.05,0,0,0.05,20,0)"
           xlink:href="#E"
           id="use168" />
        <use
           transform="matrix(0.05,0,0,0.05,23.95,0)"
           xlink:href="#F"
           id="use170" />
        <use
           transform="matrix(0.05,0,0,0.05,33.95,0)"
           xlink:href="#G"
           id="use172" />
        <use
           transform="matrix(0.05,0,0,0.05,43.95,0)"
           xlink:href="#s"
           id="use174" />
      </g>
      <g
         id="f">
        <use
           transform="matrix(0.06172839506172839,0,0,0.06172839506172839,0,0)"
           xlink:href="#r"
           id="use177" />
        <use
           transform="matrix(0.06172839506172839,0,0,0.06172839506172839,13.518518518518517,0)"
           xlink:href="#A"
           id="use179" />
        <use
           transform="matrix(0.06172839506172839,0,0,0.06172839506172839,19.691358024691358,0)"
           xlink:href="#B"
           id="use181" />
        <use
           transform="matrix(0.06172839506172839,0,0,0.06172839506172839,38.148148148148145,0)"
           xlink:href="#C"
           id="use183" />
      </g>
      <path
         d="M206 0h-36l-40-164L89 0H53L-1-190h32L70-26l43-164h34l41 164 42-164h31"
         id="H" />
      <g
         id="g">
        <use
           transform="matrix(0.06172839506172839,0,0,0.06172839506172839,0,0)"
           xlink:href="#s"
           id="use187" />
        <use
           transform="matrix(0.06172839506172839,0,0,0.06172839506172839,7.345679012345679,0)"
           xlink:href="#G"
           id="use189" />
        <use
           transform="matrix(0.06172839506172839,0,0,0.06172839506172839,19.691358024691358,0)"
           xlink:href="#H"
           id="use191" />
        <use
           transform="matrix(0.06172839506172839,0,0,0.06172839506172839,35.67901234567901,0)"
           xlink:href="#t"
           id="use193" />
        <use
           transform="matrix(0.06172839506172839,0,0,0.06172839506172839,48.02469135802469,0)"
           xlink:href="#s"
           id="use195" />
        <use
           transform="matrix(0.06172839506172839,0,0,0.06172839506172839,55.37037037037037,0)"
           xlink:href="#F"
           id="use197" />
        <use
           transform="matrix(0.06172839506172839,0,0,0.06172839506172839,67.71604938271605,0)"
           xlink:href="#v"
           id="use199" />
      </g>
      <g
         id="h">
        <use
           transform="matrix(0.06172839506172839,0,0,0.06172839506172839,0,0)"
           xlink:href="#w"
           id="use202" />
        <use
           transform="matrix(0.06172839506172839,0,0,0.06172839506172839,11.11111111111111,0)"
           xlink:href="#z"
           id="use204" />
        <use
           transform="matrix(0.06172839506172839,0,0,0.06172839506172839,23.45679012345679,0)"
           xlink:href="#u"
           id="use206" />
        <use
           transform="matrix(0.06172839506172839,0,0,0.06172839506172839,35.80246913580247,0)"
           xlink:href="#x"
           id="use208" />
        <use
           transform="matrix(0.06172839506172839,0,0,0.06172839506172839,41.97530864197531,0)"
           xlink:href="#s"
           id="use210" />
        <use
           transform="matrix(0.06172839506172839,0,0,0.06172839506172839,49.32098765432099,0)"
           xlink:href="#t"
           id="use212" />
        <use
           transform="matrix(0.06172839506172839,0,0,0.06172839506172839,61.666666666666664,0)"
           xlink:href="#w"
           id="use214" />
        <use
           transform="matrix(0.06172839506172839,0,0,0.06172839506172839,72.77777777777777,0)"
           xlink:href="#x"
           id="use216" />
      </g>
      <g
         id="i">
        <use
           transform="matrix(0.05,0,0,0.05,0,0)"
           xlink:href="#r"
           id="use219" />
        <use
           transform="matrix(0.05,0,0,0.05,10.950000000000001,0)"
           xlink:href="#A"
           id="use221" />
        <use
           transform="matrix(0.05,0,0,0.05,15.950000000000001,0)"
           xlink:href="#B"
           id="use223" />
        <use
           transform="matrix(0.05,0,0,0.05,30.900000000000002,0)"
           xlink:href="#C"
           id="use225" />
      </g>
      <path
         d="M266 0h-40l-56-210L115 0H75L2-248h35L96-30l15-64 43-154h32l59 218 59-218h35"
         id="I" />
      <g
         id="j">
        <use
           transform="matrix(0.05,0,0,0.05,0,0)"
           xlink:href="#I"
           id="use229" />
        <use
           transform="matrix(0.05,0,0,0.05,16.95,0)"
           xlink:href="#y"
           id="use231" />
        <use
           transform="matrix(0.05,0,0,0.05,20.9,0)"
           xlink:href="#x"
           id="use233" />
        <use
           transform="matrix(0.05,0,0,0.05,25.899999999999995,0)"
           xlink:href="#D"
           id="use235" />
        <use
           transform="matrix(0.05,0,0,0.05,35.9,0)"
           xlink:href="#F"
           id="use237" />
        <use
           transform="matrix(0.05,0,0,0.05,45.9,0)"
           xlink:href="#s"
           id="use239" />
        <use
           transform="matrix(0.05,0,0,0.05,51.85,0)"
           xlink:href="#t"
           id="use241" />
        <use
           transform="matrix(0.05,0,0,0.05,61.85,0)"
           xlink:href="#H"
           id="use243" />
      </g>
      <g
         id="k">
        <use
           transform="matrix(0.05,0,0,0.05,0,0)"
           xlink:href="#p"
           id="use246" />
        <use
           transform="matrix(0.05,0,0,0.05,10,0)"
           xlink:href="#q"
           id="use248" />
        <use
           transform="matrix(0.05,0,0,0.05,22.950000000000003,0)"
           xlink:href="#r"
           id="use250" />
      </g>
      <path
         d="M212-179c-10-28-35-45-73-45-59 0-87 40-87 99 0 60 29 101 89 101 43 0 62-24 78-52l27 14C228-24 195 4 139 4 59 4 22-46 18-125c-6-104 99-153 187-111 19 9 31 26 39 46"
         id="J" />
      <path
         d="M160-131c35 5 61 23 61 61C221 17 115-2 30 0v-248c76 3 177-17 177 60 0 33-19 50-47 57zm-97-11c50-1 110 9 110-42 0-47-63-36-110-37v79zm0 115c55-2 124 14 124-45 0-56-70-42-124-44v89"
         id="K" />
      <g
         id="l">
        <use
           transform="matrix(0.06172839506172839,0,0,0.06172839506172839,0,0)"
           xlink:href="#J"
           id="use255" />
        <use
           transform="matrix(0.06172839506172839,0,0,0.06172839506172839,15.987654320987653,0)"
           xlink:href="#K"
           id="use257" />
        <use
           transform="matrix(0.06172839506172839,0,0,0.06172839506172839,30.80246913580247,0)"
           xlink:href="#C"
           id="use259" />
      </g>
      <g
         id="m">
        <use
           transform="matrix(0.05,0,0,0.05,0,0)"
           xlink:href="#B"
           id="use262" />
        <use
           transform="matrix(0.05,0,0,0.05,14.950000000000001,0)"
           xlink:href="#y"
           id="use264" />
        <use
           transform="matrix(0.05,0,0,0.05,18.900000000000002,0)"
           xlink:href="#u"
           id="use266" />
        <use
           transform="matrix(0.05,0,0,0.05,28.900000000000002,0)"
           xlink:href="#x"
           id="use268" />
      </g>
      <path
         d="M30-248c118-7 216 8 213 122C240-48 200 0 122 0H30v-248zM63-27c89 8 146-16 146-99s-60-101-146-95v194"
         id="L" />
      <path
         d="M115-194c55 1 70 41 70 98S169 2 115 4C84 4 66-9 55-30l1 105H24l-1-265h31l2 30c10-21 28-34 59-34zm-8 174c40 0 45-34 45-75s-6-73-45-74c-42 0-51 32-51 76 0 43 10 73 51 73"
         id="M" />
      <g
         id="n">
        <use
           transform="matrix(0.05,0,0,0.05,0,0)"
           xlink:href="#L"
           id="use273" />
        <use
           transform="matrix(0.05,0,0,0.05,12.950000000000001,0)"
           xlink:href="#G"
           id="use275" />
        <use
           transform="matrix(0.05,0,0,0.05,22.950000000000003,0)"
           xlink:href="#M"
           id="use277" />
        <use
           transform="matrix(0.05,0,0,0.05,32.95,0)"
           xlink:href="#z"
           id="use279" />
        <use
           transform="matrix(0.05,0,0,0.05,42.95,0)"
           xlink:href="#v"
           id="use281" />
        <use
           transform="matrix(0.05,0,0,0.05,51.95,0)"
           xlink:href="#y"
           id="use283" />
        <use
           transform="matrix(0.05,0,0,0.05,55.900000000000006,0)"
           xlink:href="#x"
           id="use285" />
      </g>
      <g
         id="o">
        <use
           transform="matrix(0.05,0,0,0.05,0,0)"
           xlink:href="#I"
           id="use288" />
        <use
           transform="matrix(0.05,0,0,0.05,16.95,0)"
           xlink:href="#y"
           id="use290" />
        <use
           transform="matrix(0.05,0,0,0.05,20.9,0)"
           xlink:href="#x"
           id="use292" />
        <use
           transform="matrix(0.05,0,0,0.05,25.899999999999995,0)"
           xlink:href="#D"
           id="use294" />
        <use
           transform="matrix(0.05,0,0,0.05,35.9,0)"
           xlink:href="#F"
           id="use296" />
        <use
           transform="matrix(0.05,0,0,0.05,45.9,0)"
           xlink:href="#s"
           id="use298" />
        <use
           transform="matrix(0.05,0,0,0.05,51.85,0)"
           xlink:href="#t"
           id="use300" />
        <use
           transform="matrix(0.05,0,0,0.05,61.85,0)"
           xlink:href="#H"
           id="use302" />
      </g>
    </defs>
  </g>
  <g
     id="g4566"
     transform="matrix(1.1035388,0,0,1.1035388,187.33779,-78.109988)">
    <g
       id="content"
       transform="matrix(0.55961429,0,0,-0.55961429,-97.9325,466.8825)"
       xml:space="preserve"
       stroke-miterlimit="10.433"
       font-style="normal"
       font-variant="normal"
       font-weight="normal"
       font-stretch="normal"
       font-size-adjust="none"
       letter-spacing="normal"
       word-spacing="normal"
       style="font-style:normal;font-variant:normal;font-weight:normal;font-stretch:normal;letter-spacing:normal;word-spacing:normal;text-anchor:start;fill:none;fill-opacity:1;fill-rule:evenodd;stroke:#000000;stroke-linecap:butt;stroke-linejoin:miter;stroke-miterlimit:10.43299961;stroke-dasharray:none;stroke-dashoffset:0;stroke-opacity:1"><path
         d="m 473.8,426.12 4.28,0 c 1,0 1.5,0 1.5,1 0,0.55 -0.5,0.55 -1.34,0.55 l -4.14,0 1.04,5.69 c 0.21,1.04 0.91,4.57 1.21,5.17 0.45,0.95 1.29,1.7 2.34,1.7 0.19,0 1.49,0 2.44,-0.91 -2.19,-0.18 -2.69,-1.93 -2.69,-2.68 0,-1.14 0.89,-1.74 1.85,-1.74 1.29,0 2.73,1.1 2.73,2.99 0,2.29 -2.3,3.43 -4.33,3.43 -1.7,0 -4.84,-0.89 -6.33,-5.82 -0.29,-1.05 -0.45,-1.55 -1.64,-7.83 l -3.43,0 c -0.96,0 -1.5,0 -1.5,-0.94 0,-0.61 0.45,-0.61 1.39,-0.61 l 3.29,0 -3.75,-19.67 c -0.89,-4.83 -1.73,-9.38 -4.33,-9.38 -0.2,0 -1.43,0 -2.39,0.91 2.3,0.14 2.74,1.94 2.74,2.69 0,1.14 -0.89,1.75 -1.85,1.75 -1.29,0 -2.73,-1.1 -2.73,-3 0,-2.24 2.19,-3.44 4.23,-3.44 2.74,0 4.74,2.94 5.63,4.84 1.59,3.14 2.75,9.16 2.8,9.52 z"
         id="path4569"
         inkscape:connector-curvature="0"
         style="fill:#000000;stroke-width:0" /><path
         d="m 491.18,420.54 -0.01,0.05 0,0.06 -0.01,0.05 0,0.06 -0.02,0.05 -0.01,0.06 -0.02,0.05 -0.02,0.06 -0.02,0.06 -0.02,0.05 -0.03,0.06 -0.03,0.05 -0.03,0.06 -0.04,0.05 -0.04,0.05 -0.04,0.05 -0.04,0.05 -0.05,0.05 -0.05,0.04 -0.05,0.05 -0.06,0.04 -0.06,0.03 -0.06,0.04 -0.07,0.03 -0.06,0.03 -0.07,0.03 -0.08,0.02 -0.08,0.02 -0.08,0.01 -0.08,0.01 -0.09,0.01 -0.09,0 c -0.94,0 -1.95,-0.91 -1.95,-1.92 0,-0.59 0.45,-1.33 1.4,-1.33 1,0 1.96,0.99 1.96,1.92 z"
         id="path4571"
         inkscape:connector-curvature="0"
         style="fill:#000000;stroke-width:0" /><path
         d="m 484.07,402.84 -0.06,-0.17 -0.05,-0.17 -0.03,-0.08 -0.02,-0.09 -0.03,-0.08 -0.02,-0.09 -0.02,-0.09 -0.02,-0.09 -0.02,-0.1 -0.02,-0.09 -0.01,-0.1 0,-0.05 -0.01,-0.05 0,-0.06 0,-0.05 -0.01,-0.05 0,-0.06 c 0,-1.64 1.39,-2.95 3.3,-2.95 3.49,0 5.03,4.79 5.03,5.33 0,0.45 -0.45,0.45 -0.56,0.45 -0.48,0 -0.53,-0.2 -0.67,-0.59 -0.8,-2.79 -2.33,-4.22 -3.69,-4.22 -0.7,0 -0.87,0.45 -0.87,1.22 0,0.79 0.25,1.46 0.56,2.23 0.34,0.94 0.73,1.87 1.11,2.78 0.31,0.84 1.58,4.02 1.72,4.44 0.09,0.34 0.2,0.76 0.2,1.11 0,1.64 -1.39,2.95 -3.31,2.95 -3.46,0 -5.05,-4.73 -5.05,-5.33 0,-0.45 0.48,-0.45 0.59,-0.45 0.49,0 0.52,0.17 0.63,0.56 0.9,3 2.44,4.25 3.72,4.25 0.56,0 0.87,-0.28 0.87,-1.22 0,-0.79 -0.2,-1.32 -1.08,-3.48 z"
         id="path4573"
         inkscape:connector-curvature="0"
         style="fill:#000000;stroke-width:0" /></g>  </g>
  <g
     id="g4899"
     transform="matrix(1.1035388,0,0,1.1035388,187.33772,35.795413)">
    <g
       word-spacing="normal"
       letter-spacing="normal"
       font-size-adjust="none"
       font-stretch="normal"
       font-weight="normal"
       font-variant="normal"
       font-style="normal"
       stroke-miterlimit="10.433"
       xml:space="preserve"
       transform="matrix(0.55961429,0,0,-0.55961429,-97.9325,466.8825)"
       id="g4901"
       style="font-style:normal;font-variant:normal;font-weight:normal;font-stretch:normal;letter-spacing:normal;word-spacing:normal;text-anchor:start;fill:none;fill-opacity:1;fill-rule:evenodd;stroke:#000000;stroke-linecap:butt;stroke-linejoin:miter;stroke-miterlimit:10.43299961;stroke-dasharray:none;stroke-dashoffset:0;stroke-opacity:1"><path
         id="path4903"
         d="m 473.8,426.12 4.28,0 c 1,0 1.5,0 1.5,1 0,0.55 -0.5,0.55 -1.34,0.55 l -4.14,0 1.04,5.69 c 0.21,1.04 0.91,4.57 1.21,5.17 0.45,0.95 1.29,1.7 2.34,1.7 0.19,0 1.49,0 2.44,-0.91 -2.19,-0.18 -2.69,-1.93 -2.69,-2.68 0,-1.14 0.89,-1.74 1.85,-1.74 1.29,0 2.73,1.1 2.73,2.99 0,2.29 -2.3,3.43 -4.33,3.43 -1.7,0 -4.84,-0.89 -6.33,-5.82 -0.29,-1.05 -0.45,-1.55 -1.64,-7.83 l -3.43,0 c -0.96,0 -1.5,0 -1.5,-0.94 0,-0.61 0.45,-0.61 1.39,-0.61 l 3.29,0 -3.75,-19.67 c -0.89,-4.83 -1.73,-9.38 -4.33,-9.38 -0.2,0 -1.43,0 -2.39,0.91 2.3,0.14 2.74,1.94 2.74,2.69 0,1.14 -0.89,1.75 -1.85,1.75 -1.29,0 -2.73,-1.1 -2.73,-3 0,-2.24 2.19,-3.44 4.23,-3.44 2.74,0 4.74,2.94 5.63,4.84 1.59,3.14 2.75,9.16 2.8,9.52 z"
         inkscape:connector-curvature="0"
         style="fill:#000000;stroke-width:0" /><path
         id="path4905"
         d="m 488.46,412.53 3.54,0 c 0.66,0 1.11,0 1.11,0.76 0,0.49 -0.45,0.49 -1.03,0.49 l -3.31,0 1.28,5.15 c 0.03,0.18 0.11,0.35 0.11,0.49 0,0.64 -0.48,1.12 -1.19,1.12 -0.87,0 -1.39,-0.59 -1.64,-1.5 -0.23,-0.87 0.22,0.8 -1.33,-5.26 l -3.54,0 c -0.66,0 -1.11,0 -1.11,-0.77 0,-0.48 0.4,-0.48 1.04,-0.48 l 3.3,0 -2.05,-8.22 c -0.21,-0.88 -0.53,-2.13 -0.53,-2.58 0,-2.06 1.75,-3.31 3.74,-3.31 3.87,0 6.06,4.87 6.06,5.33 0,0.45 -0.45,0.45 -0.56,0.45 -0.41,0 -0.46,-0.08 -0.72,-0.66 -0.99,-2.2 -2.77,-4.15 -4.67,-4.15 -0.74,0 -1.22,0.45 -1.22,1.7 0,0.36 0.14,1.09 0.2,1.44 z"
         inkscape:connector-curvature="0"
         style="fill:#000000;stroke-width:0" /></g>  </g>
</svg>
